<?xml version="1.0" standalone="no"?>
<!DOCTYPE svg PUBLIC "-//W3C//DTD SVG 1.1//EN" "http://www.w3.org/Graphics/SVG/1.1/DTD/svg11.dtd" >
<svg xmlns="http://www.w3.org/2000/svg">
<metadata>Generated by IcoMoon</metadata>
<defs>
<font id="JOIcons" horiz-adv-x="1024">
<font-face units-per-em="1024" ascent="960" descent="-64" />
<missing-glyph horiz-adv-x="1024" />
<glyph unicode="&#x20;" horiz-adv-x="512" d="" />
<glyph unicode="&#xe900;" horiz-adv-x="1673" d="M0 960h1673.463v-1024h-1673.463v1024z" />
<glyph unicode="&#xe901;" horiz-adv-x="1673" d="M273.133 838.275c98.256 50.124 215.777 61.002 321.444 29.325 26.696-7.57 52.435-18.269 77.119-30.899 71.421-36.816 132.482-93.335 175.335-161.27 49.905-77.836 75.545-170.873 73.154-263.272-0.837-87.917-27.672-175.295-75.525-249.007-40.382-62.635-96.384-115.051-161.489-151.309-75.904-41.936-164.338-61.101-250.76-53.013-52.415 4.343-103.834 18.826-151.269 41.478-26.915 13.009-52.395 28.807-76.262 46.777-3.407 2.63-6.754 5.319-10.24 7.849-3.945 3.367-7.849 6.793-11.874 10.041-38.251 33.25-71.162 72.656-96.842 116.385-47.076 80.645-69.568 175.375-63.512 268.571 3.148 59.767 18.328 118.736 43.47 173.024 10.399 22.134 22.592 43.391 36.159 63.711 9.344 13.687 19.305 26.955 30.023 39.605 25.022 29.525 53.65 56.041 85.347 78.294 1.335 19.305 4.781 38.51 3.945 57.934-0.797 4.821 2.012 8.865 4.861 12.392 1.355 0.458 4.064 1.375 5.419 1.833 4.921-1.952 8.925-5.419 12.033-9.642 6.096-11.575 12.471-23.229 15.201-36.139 4.841 2.291 9.563 4.781 14.264 7.331z" />
<glyph unicode="&#xe902;" horiz-adv-x="1673" d="M263.63 812.476c71.023 39.346 153.301 58.85 234.444 52.774 55.304-3.247 109.672-18.508 159.278-43.032 91.901-45.921 165.992-125.589 206.513-219.861 49.805-113.815 49.885-247.832 1.096-362.006-4.602-10.18-9.204-20.38-14.404-30.282-2.948 7.371-6.076 15.061-12.212 20.38-5.718 6.295-15.38 8.268-18.946 16.555-3.108 7.551-4.343 15.998-9.802 22.412-15.3 7.232-31.875 15.121-40.263 30.72-12.451 1.255-21.536-10.18-33.967-9.722-5.399 1.654-11.535 0.618-16.276 4.184-13.388 7.351-24.345 18.289-33.529 30.361-3.407 4.722-8.606 7.71-12.252 12.252-6.216 3.825-12.651-0.080-18.229-3.068-4.204 3.407-9.403 5.040-14.703 5.618-2.251 3.008-4.124 9.065-8.905 7.73-6.335-2.929-11.814-7.411-18.069-10.519-4.463-4.722-9.463-8.885-14.185-13.328-3.466 1.932-7.072 4.224-11.236 3.247-6.116-1.395-10.379 3.785-15.28 6.315-5.399-1.972-11.176-2.112-16.834-2.47-6.315-1.594-12.83-2.211-19.185-3.586-6.156-1.454-13.288 1.773-18.468-2.968-15.42-8.726-23.528-26.975-40.86-32.672-4.861-1.375-9.065-4.184-13.268-6.893-1.375-1.315-2.729-2.67-4.084-4.024-5.797-2.092-11.913-2.331-17.99-2.152-4.642 0.418-7.59-3.745-11.117-5.957-5.080 6.036-8.527 13.169-12.929 19.663-12.332 14.902-24.126 30.242-37.792 43.968-1.833 1.673-3.666 3.367-5.419 5.1l-0.936 0.259c-0.398 8.347-1.773 16.615-2.012 24.962-0.299 9.284-4.084 18.229-2.47 27.592 11.575 11.694 21.655 25.819 25.56 41.976 0.159 15.44-6.176 30.421-15.499 42.534-1.474 1.016-2.909 2.032-4.363 3.048 7.232 9.961 18.647 15.499 26.277 25.082 10.778 12.551 23.946 24.604 28.090 41.199 0.319 10.479-2.052 21.018-5.479 30.859-2.251 6.076-6.594 11.734-13.208 13.348 0.717 5.538 1.474 11.097 0.518 16.655-4.004 1.673-8.905 2.371-10.858 6.853-2.709 0.259-5.399 0.438-8.088 0.598-3.427 5.877-9.563 2.729-14.603 1.395-0.040 1.295-0.12 3.885-0.139 5.18 15.3 0.139 29.286 6.793 41.259 15.898 8.885 7.112 17.472 14.583 24.783 23.309 6.415-0.279 12.81-0.797 19.245-0.379 1.355-3.108 1.434-7.451 5.020-8.965 2.968-1.136 6.196-1.414 9.324-1.972-0.060-5.777 1.693-14.224 8.845-14.543 5.837-1.355 10.041 3.626 11.575 8.666 4.582-1.155 9.144-0.518 13.368 1.534 1.116 3.526 1.893 7.152 2.251 10.838-0.837 0.916-2.47 2.769-3.307 3.686-1.155 1.654-6.136 2.311-4.084 5.020 3.028 5.379 2.67 11.376 1.036 17.133-5.2 1.873-11.515 4.502-14.822-1.833 0.299 10.399-13.507 10.698-18.986 4.482-0.12-4.562-0.139-9.144 0.139-13.706-8.268-2.988-16.974-2.948-25.6-1.932 4.622 8.308 6.833 17.691 8.367 26.995 1.793 11.316-5.080 21.098-11.037 29.983 5.259 5.419 11.376 11.635 10.599 19.862-0.638 7.272-0.837 16.755-8.308 20.54-5.877 4.243-13.188 3.725-19.962 4.801 6.893 4.124 15.44 1.395 23.030 1.813 7.072 0.379 14.424-3.925 21.277-0.837 0.339 4.642-3.307 8.208-7.052 10.3-13.228 8.268-29.385 8.606-44.466 9.941-0.339 1.295-1.016 3.885-1.355 5.18-7.431 12.571-23.508 12.013-36.179 13.786-19.783-0.339-41.398-3.048-56.918-16.535-11.515-10.36-12.192-26.716-14.145-41.020-6.176-0.259-11.216-3.626-15.499-7.77-5.997-12.451-6.295-27.393-1.215-40.163 3.008-3.088 7.889-3.865 10.379-7.551 0.757-6.933-0.578-14.045 1.494-20.819 2.411-7.849 5.359-15.539 8.726-23.030 4.303-6.774 9.124-13.408 16.097-17.671 1.693-1.813 3.327-3.686 4.901-5.618-1.813-3.586-3.706-7.132-6.016-10.419-2.191-2.849-4.084-5.897-5.857-9.005-8.088-0.139-16.217 0.139-24.186 1.733-3.387 14.244-8.268 28.11-11.296 42.434-2.49 16.874-9.005 32.792-11.495 49.646-6.813 23.389-8.925 47.893-8.945 72.178-0.339 11.395-2.829 22.572-4.901 33.728z" />
<glyph unicode="&#xe903;" horiz-adv-x="1673" d="M228.209 796.758c3.207 20.042 6.455 40.143 6.335 60.524 11.435-18.946 16.436-40.9 19.743-62.536 3.267-16.416 0.777-33.25 2.53-49.805 1.315-17.571 7.172-34.326 10.14-51.638 3.586-12.412 6.873-24.903 9.344-37.613 7.351-24.365 13.368-49.128 17.173-74.31 0.677-7.172 3.965-13.667 6.435-20.341 5.379-13.507 4.981-28.927 13.487-41.239-0.12-1.096-0.359-3.287-0.478-4.383-0.259 0.598-0.737 1.833-0.976 2.45-7.57 6.016-8.029 16.137-10.28 24.783-5.040 7.391-17.193 4.403-19.245-3.865-4.542-12.392-2.729-25.66-0.259-38.251-10.838-3.965-24.166-4.423-31.816-14.264-4.403-4.861-1.733-11.475-0.359-17.014 2.63-0.877 5.259-1.813 7.909-2.689-7.531-7.69-6.953-21.775 2.729-27.393-3.646-5.1-1.952-10.997 1.195-15.858 5.2-3.466 11.176-6.016 17.153-2.61 2.65-4.981 5.419-10.619 3.865-16.436-1.753-7.212-5.618-13.706-7.331-20.958-1.454-0.080-4.343-0.239-5.797-0.339-0.518-3.725-0.877-7.491-1.175-11.256 2.47-0.817 4.961-1.654 7.451-2.53-0.040-2.57-0.1-5.16-0.159-7.77-1.434-0.139-4.323-0.398-5.758-0.538-0.1-4.064-0.020-8.128 0.359-12.192 3.825-0.996 10.061 0.1 9.423-5.797-7.311-1.753-2.909-9.383-1.474-13.846 1.375 0.618 4.124 1.833 5.499 2.45 1.733-2.191 3.407-4.463 5.040-6.754-1.295-1.036-3.925-3.128-5.24-4.164 2.032-2.67 4.084-5.319 6.196-7.929 3.486 1.335 6.973 1.175 9.981-1.136-2.032-3.506-0.956-7.072 0.518-10.519 9.981 3.387 18.946 9.045 28.21 13.926 10.818 7.072 15.758 19.683 20.221 31.238 4.283 11.336 1.733 23.727-1.853 34.844 2.869 0.936 5.738 1.813 8.646 2.63 2.829-14.444 2.311-29.306 5.24-43.769 3.526-16.695 3.447-34.286 10.579-50.084 2.929-7.889 8.586-14.244 13.129-21.217 9.782-14.284 19.046-28.927 27.791-43.889 4.204-8.188 8.029-16.695 9.861-25.779 2.152-8.029 3.666-16.555 8.407-23.568 5.459-7.59 13.029-13.965 22.432-15.758-0.458-8.905 1.136-18.109-1.713-26.755-9.563-6.913-21.855-6.973-31.875-12.85-7.829-5.12-11.336-14.185-16.535-21.556-7.889-11.993-10.379-27.174-5.758-40.92 1.972-13.408 8.586-25.441 17.014-35.88 8.387-9.403 19.882-14.782 29.804-22.253 10.957-9.344 24.345-15.24 35.183-24.783-94.61-3.347-189.42 28.628-264.447 85.984-14.902 10.957-28.548 23.468-42.016 36.139-2.211 2.231-4.482 4.403-6.793 6.534 3.725 5.399 7.431 10.818 10.838 16.416 4.961 8.806 12.392 15.978 16.735 25.162 2.709 4.682 5.718 9.204 7.69 14.244 5.598 19.105 15.081 36.836 20.002 56.181 10.957 27.672 18.308 56.519 24.704 85.526 2.411 15.24 8.308 29.903 8.407 45.482 2.431 21.337 0.717 42.773-0.279 64.129-2.371 33.33-12.671 65.325-19.384 97.878 1.116 0.857 3.367 2.57 4.482 3.427 2.63 5.14 2.211 11.057-1.534 15.499 7.192 5.24 3.466 14.782-0.737 20.679-0.279 0.438-0.797 1.275-1.076 1.693 2.052 1.733 4.064 3.506 6.036 5.319-0.040 1.673-0.139 5.020-0.179 6.694-2.152 3.207-4.084 6.554-5.897 9.981 1.673 0.379 5.020 1.136 6.694 1.514 1.096 16.834-13.647 27.672-23.349 39.247-0.638-0.040-1.913-0.139-2.55-0.199-2.032 16.954 0.777 34.087-0.339 51.1-1.235 15.42 3.008 30.541 2.689 45.901 0.239 16.774 5.558 32.892 6.176 49.586 1.215 12.69-0.857 25.759 3.188 38.071z" />
<glyph unicode="&#xe904;" horiz-adv-x="1673" d="M333.776 789.785c11.993 11.117 29.325 12.77 44.865 13.985 10.638-1.096 23.807-0.697 30.84-10.22 0.159-0.956 0.438-2.889 0.578-3.845-15.818-2.789-32.234-4.761-46.618-12.392-6.674-3.247-13.447-6.216-20.261-9.124-8.427-3.028-14.683-9.702-21.994-14.583 0.339 5.718 0.877 11.415 1.335 17.113 3.785 6.335 5.259 14.244 11.256 19.066z" />
<glyph unicode="&#xe905;" horiz-adv-x="1673" d="M212.41 777.373c0.279 0.976 0.817 2.909 1.096 3.885 0-19.006-2.411-37.852-6.295-56.42-1.713-0.976-5-3.207-1.275-4.044 0.080-10.041-0.339-20.082-1.952-30.023-2.809-19.723 0.677-39.605-0.777-59.408-0.359-4.662-0.598-9.363-0.717-14.045-2.51-2.371-6.216-4.403-6.495-8.208-1.175-6.754 3.945-12.192 6.714-17.85-2.172-2.112-4.323-4.243-6.554-6.295-2.47-7.889 2.909-14.583 6.435-21.078-2.391-3.227-5.977-6.036-6.574-10.26-1.155-3.745 1.395-7.192 2.51-10.599 1.693-1.813 3.427-3.586 5.16-5.359-1.335-4.761-1.853-9.722 0.478-14.284 1.853-2.351 3.905-4.682 4.881-7.59-4.562-9.722-10.818-18.986-12.392-29.843-0.578-6.893 1.853-13.527 3.984-19.962 4.403-13.069 15.858-21.197 26.955-28.289 0.359-1.116 0.717-2.251 1.076-3.387-12.372-6.953-22.512-19.444-23.169-34.047-0.558-4.881 3.486-10.718-1.076-14.603-2.431-4.602-2.291-9.642-0.060-14.264 7.889-1.913 7.829-11.316 14.663-14.523 1.853-3.526 3.407-7.849 7.67-9.025 4.443 0.558 10.021 3.905 12.929-1.355 2.092-7.411-1.056-15.221-2.63-22.512-5.758-31.397-13.049-62.576-23.070-92.897-4.024-9.523-7.212-19.364-10.399-29.186-3.427-1.295-7.172-3.526-10.838-1.594-9.443 4.801-19.484-0.916-28.967-2.57-9.662-1.693-18.149-7.013-27.692-9.104-11.475 3.626-17.87-9.702-28.449-10.977-47.395 75.625-71.58 165.394-68.911 254.566 2.092 100.209 38.47 199.541 102.44 276.819 20.4 24.943 43.59 47.614 69.050 67.377l0.159 1.395 2.092-0.438z" />
<glyph unicode="&#xe906;" horiz-adv-x="1673" d="M369.656 769.245c8.527 4.722 18.069 6.873 27.473 9.005 5.797-4.682 13.567-3.945 20.54-4.881-1.733-2.012-3.447-4.064-5.1-6.156 1.813-1.634 2.689-5.658 5.817-4.741 7.531 1.494 15.161 1.574 22.353-1.494 2.849-5.1 5.12-11.395 2.729-17.133-2.789-7.531-10.12-11.654-16.376-15.958 4.482-4.901 11.515-7.451 14.165-13.866 2.251-4.542 2.948-9.622 3.965-14.523-3.367-8.467-5.797-17.253-9.045-25.759-5.299 1.036-10.2 3.287-14.942 5.797 4.224 0.857 8.487 1.474 12.671 2.57 0.239 6.375-6.275 7.132-10.32 10.12-2.371 1.634-3.586 4.383-5.279 6.614-2.809-0.279-5.618-0.657-8.427-1.076-0.080-1.554-0.219-4.682-0.299-6.236 2.112-2.948 3.905-7.212 0.837-10.24-10.22-13.049-28.329-14.523-43.49-11.794-4.224 1.215-7.989 3.686-11.336 6.455-0.618 4.144 1.036 8.666-1.594 12.372-2.45-1.056-4.901-2.112-7.351-3.168-2.889-6.295-6.774-12.033-10.818-17.651 0.12-0.996 0.359-3.008 0.478-4.004 4.343 0.319 8.427 1.753 12.053 4.124 5.259-3.108 10.599-6.216 16.555-7.809 17.83-2.132 36.896 1.614 50.742 13.627 1.574-0.837 3.148-1.673 4.722-2.53 3.387-1.813 6.754-3.666 10.101-5.578-8.208-12.511-21.815-20.161-34.366-27.672-17.771-7.451-39.585-5.718-55.404 5.499-14.125 9.941-21.038 27.034-23.169 43.649-1.315 6.734 1.434 13.029 4.004 19.066-2.431 1.932-4.901 3.805-7.371 5.658-1.454-0.299-4.363-0.877-5.837-1.175-9.802 2.889-8.188 14.264-7.491 22.253 0.837 4.562 1.673 11.854 7.829 11.635 2.948 0.936 5.638-1.056 8.188-2.191 7.451-2.172 13.069 3.646 17.97 8.268 3.825 3.845 8.268 6.953 12.332 10.539 7.411 2.988 15.44 4.443 22.492 8.387z" />
<glyph unicode="&#xe907;" horiz-adv-x="1673" d="M381.271 759.643c4.861 7.471 14.703 4.403 21.416 1.594 1.514-2.729 3.008-5.479 4.582-8.188 3.825-9.642-3.825-19.026-13.607-19.842 3.048-8.168 12.431-12.651 13.049-21.775 1.474-8.806-6.116-17.113-14.643-17.99-6.236-0.598-13.009-0.12-18.607 2.948-7.969 6.016-8.427 17.352-7.71 26.477-5.359-0.737-11.336-0.379-15.24 3.825-5.479 6.016-5 14.981-2.829 22.293 4.024 3.128 8.507 7.033 14.005 6.315 3.267-0.697 6.315-2.092 9.403-3.347 3.148-5.758 5.897-12.133 5.020-18.866 0.279-8.347-4.164-17.033-0.279-25.082 3.785-7.949 19.265-9.045 21.277 0.757-1.155 7.889-7.172 13.687-11.694 19.862 0.020 2.889 0.1 5.758 0.199 8.626-2.032 1.873-4.044 3.745-6.076 5.578-1.036 5.598-2.849 12.232 1.733 16.814z" />
<glyph unicode="&#xe908;" horiz-adv-x="1673" d="M385.813 756.854c2.152 0.857 4.283 1.733 6.435 2.61 2.291-0.737 4.602-1.474 6.913-2.191 2.391-4.482 3.686-9.463 2.132-14.464-1.016-0.618-3.048-1.813-4.064-2.431-2.271 0-4.522 0-6.754-0.040-5.1 4.104-6.734 10.34-4.662 16.515z" />
<glyph unicode="&#xe909;" horiz-adv-x="1673" d="M392.726 753.228c2.191-1.355 4.363-2.729 6.554-4.104-0.598-2.211-1.175-4.423-1.773-6.634-1.813-0.020-5.479-0.1-7.292-0.12-0.359 1.614-1.056 4.861-1.395 6.475 0.976 1.096 2.929 3.287 3.905 4.383z" />
<glyph unicode="&#xe90a;" horiz-adv-x="1673" d="M428.307 735.816c-8.308 0.299-7.869 12.033-6.813 18.209 6.156-0.1 13.308 0.538 17.91-4.403-2.411-5.479-5.877-10.698-11.097-13.806z" />
<glyph unicode="&#xe90b;" horiz-adv-x="1673" d="M353.678 747.55c5.658 1.634 11.475 1.395 16.177-2.47 0.319-5.12 2.271-12.531-3.447-15.38-4.961-3.526-12.89 0.139-13.328 6.156-0.737 3.885-0.020 7.829 0.598 11.694z" />
<glyph unicode="&#xe90c;" horiz-adv-x="1673" d="M357.324 736.911c2.411 2.61 4.841 6.016 8.925 5.459 2.172-3.148 1.375-7.072 1.474-10.638-1.853 0.12-5.578 0.379-7.431 0.498-0.737 1.175-2.231 3.506-2.968 4.682z" />
<glyph unicode="&#xe90d;" horiz-adv-x="1673" d="M314.392 735.537c1.833 0.040 3.706 0.1 5.558 0.139 0.797-6.036 1.076-12.113 1.215-18.189-6.196-0.737-11.395 2.67-15.699 6.714 0.1 2.311 0.239 4.642 0.379 6.953 2.829 1.474 5.678 2.929 8.547 4.383z" />
<glyph unicode="&#xe90e;" horiz-adv-x="1673" d="M479.089 683.381c2.49-0.279 4.981-0.618 7.491-0.956 0.877-4.961 1.215-10.021 0.040-14.981-5.738 3.287-9.822 9.085-7.531 15.938z" />
<glyph unicode="&#xe90f;" horiz-adv-x="1673" d="M497.616 679.994c1.893-0.757 3.785-1.514 5.698-2.291-0.398-6.455-4.702-13.069-11.973-11.894 1.813 4.841 3.825 9.622 6.275 14.185z" />
<glyph unicode="&#xe910;" horiz-adv-x="1673" d="M469.526 665.729c3.506 0.259 7.013 0.398 10.559 0.458 0.817-0.817 2.47-2.45 3.307-3.267-1.096-1.434-2.152-2.869-3.227-4.303-3.387-0.299-6.873-1.036-10.18 0.12-0.339 2.311-0.379 4.662-0.458 6.993z" />
<glyph unicode="&#xe911;" horiz-adv-x="1673" d="M485.264 659.713c1.036 0.12 3.068 0.379 4.104 0.518 1.913-5.259 2.829-10.798 1.913-16.356-2.59 0.12-5.16 0.259-7.73 0.458-1.076 5.22-0.697 10.559 1.713 15.38z" />
<glyph unicode="&#xe912;" horiz-adv-x="1673" d="M507.059 650.449c-6.953-2.929-15.559 4.463-11.894 11.555 4.224-1.414 8.148-3.546 11.874-5.957 0-1.873 0.020-3.725 0.020-5.598z" />
<glyph unicode="&#xe913;" horiz-adv-x="1673" d="M346.765 627.26c7.272-0.877 14.284-3.108 21.416-4.702-1.634-6.116-3.785-12.073-5.618-18.129-9.085-2.012-21.118-2.769-26.935 6.016 0.598 1.195 1.773 3.606 2.371 4.801 3.666 3.466 5 8.806 8.766 12.013z" />
<glyph unicode="&#xe914;" horiz-adv-x="1673" d="M204.68 606.063c1.414 0.020 4.283 0.060 5.718 0.080 6.714-7.252 14.364-13.627 20.44-21.436-4.443-1.414-8.606 0.060-11.555 3.546l-0.538 0.319c-5.479 5.14-10.778 10.658-14.065 17.492z" />
<glyph unicode="&#xe915;" horiz-adv-x="1673" d="M302.996 603.991c8.029 0.1 16.057-0.199 24.086 0.219 9.622-11.455 26.058-12.133 39.346-7.57-1.434-9.403-6.913-17.233-11.356-25.401-2.948-4.921-5.877-9.881-9.622-14.224-7.411-8.527-13.009-19.026-22.911-25.062-0.478 0.179-1.454 0.558-1.932 0.737-1.514 7.013-3.008 14.045-5.2 20.898-1.893 10.041-7.67 18.826-9.104 28.987-0.837 7.192-2.112 14.304-3.307 21.416z" />
<glyph unicode="&#xe916;" horiz-adv-x="1673" d="M205.438 580.522c1.972 0.219 3.945 0.418 5.917 0.598 6.375-7.471 19.085-11.376 18.846-22.871-9.782 5.299-19.663 12.013-24.763 22.273z" />
<glyph unicode="&#xe917;" horiz-adv-x="1673" d="M405.197 580.562c0.916-0.12 2.729-0.319 3.646-0.418 6.754-13.169 13.328-31.158 3.347-44.367-4.622-6.515-9.901-12.491-15.101-18.548-0.518-0.518-1.554-1.574-2.072-2.092-3.646-4.263-7.491-8.407-11.993-11.774-6.714-4.821-11.515-11.933-19.066-15.659-0.717 8.925-5.319 16.675-9.144 24.544 5.2 4.423 10.3 9.045 14.384 14.563 7.491 9.842 15.858 19.085 22.094 29.843 4.682 7.929 9.363 15.878 13.906 23.907z" />
<glyph unicode="&#xe918;" horiz-adv-x="1673" d="M207.031 553.169c1.733 7.033 10.379 3.207 11.754-2.092 2.988-3.148 6.714-5.459 10.36-7.77 0.817-2.351 1.634-4.702 2.431-7.072-9.622 2.351-20.4 7.351-24.544 16.934z" />
<glyph unicode="&#xe919;" horiz-adv-x="1673" d="M209.422 531.095c8.188 0.458 20.44-0.638 21.875-10.778-9.025-2.012-18.647 1.713-21.875 10.778z" />
<glyph unicode="&#xe91a;" horiz-adv-x="1673" d="M290.426 531.414c1.096 0.339 3.267 1.036 4.363 1.395 3.367-9.981 6.574-21.058 15.42-27.652 3.267-1.235 6.495-2.53 9.802-3.706 7.451 2.271 15.141 3.626 22.751 5.16 5.020-6.455 10.838-14.324 7.511-22.93-4.423-2.59-8.367-5.857-12.212-9.204-5.658-7.072-10.24-14.922-15.26-22.432-9.662-9.842-19.325-19.703-29.843-28.628-0.857 0-2.55 0-3.407 0.020-0.020 0.777-0.060 2.371-0.1 3.168 6.415 5.439 12.929 10.798 18.727 16.914-0.219 1.713-0.438 3.407-0.657 5.12-6.714 2.47-12.551-1.634-17.133-6.116-5.897-4.164-10.738-12.212-18.846-11.336-4.184 6.136 4.363 11.993 9.463 14.483 7.351 3.885 13.567 9.503 20.739 13.687 0.060 1.295 0.199 3.885 0.279 5.2-14.623 4.741-23.209-12.431-36.597-14.344-2.411 4.044-0.219 9.144 3.666 11.296 7.092 4.363 13.109 11.834 22.134 11.595 1.295 0.737 3.905 2.231 5.22 2.968-0.697 2.809-1.713 7.371-5.618 6.734-10.758-0.677-20.679-5.758-31.437-6.574-0.936 8.447 8.188 9.184 13.965 11.316 6.933 2.57 16.396 1.614 20.619 8.686 1.096 11.814-6.754 23.169-3.546 35.183z" />
<glyph unicode="&#xe91b;" horiz-adv-x="1673" d="M208.665 483.481c1.195 9.602 6.295 18.328 11.156 26.576 4.164-10.778 6.714-22.094 9.662-33.25 2.032-10.22 5.758-20.121 6.395-30.6-3.506 1.913-6.993 3.865-10.36 6.016-10.041 7.272-15.041 19.364-16.854 31.258z" />
<glyph unicode="&#xe91c;" horiz-adv-x="1673" d="M1421.547 487.287c11.117 2.809 22.353-0.956 32.692-4.921 0.259-4.064 0.339-8.128 0.558-12.212-0.638 0.1-1.932 0.299-2.57 0.398-8.746 6.495-20.46 9.822-31.019 6.056-9.344-2.65-15.599-13.149-12.75-22.592 2.729-10.977 14.244-15.679 23.050-20.958 9.822-5.997 21.815-11.077 26.676-22.313 4.423-11.973 0.040-26.536-10.758-33.569-15.081-10.937-35.222-8.547-51.818-2.769-0.199 4.861-0.179 9.702-0.299 14.543 13.228-11.515 35.96-13.806 47.734 0.956 3.745 8.347 2.809 18.348-4.024 24.803-12.471 8.945-27.612 14.165-38.35 25.421-7.232 7.311-8.845 18.886-5.1 28.289 4.423 10.459 15.041 17.073 25.979 18.866z" />
<glyph unicode="&#xe91d;" horiz-adv-x="1673" d="M622.688 485.075c7.451-0.080 14.902-0.12 22.373-0.060-0.040-16.794-0.159-33.569 0.060-50.363 7.451 16.715 14.981 33.39 22.173 50.204 8.108 0.299 16.217 0.239 24.325-0.020-7.989-17.352-15.798-34.764-23.608-52.196 7.829-21.058 16.376-41.856 24.425-62.854-8.128 0.1-16.276-0.478-24.385 0.299-8.367 18.269-15.021 37.314-22.95 55.782-0.279-18.707-0.020-37.414-0.12-56.141-7.411-0.020-14.822 0-22.233 0.040 0.020 38.43 0.139 76.88-0.060 115.31z" />
<glyph unicode="&#xe91e;" horiz-adv-x="1673" d="M700.922 485.035c7.79 0.020 15.599-0.040 23.409-0.080-0.060-38.43-0.020-76.86-0.020-115.29-7.809-0.12-15.619-0.080-23.409-0.080 0.040 38.49 0.020 76.959 0.020 115.449z" />
<glyph unicode="&#xe91f;" horiz-adv-x="1673" d="M743.814 484.956c17.85-0.638 37.195 2.929 53.531-6.216 12.172-9.503 12.392-28.15 6.236-41.199-2.968-3.247-6.435-6.016-10.32-8.088 5.698-2.968 11.236-7.072 13.706-13.228 3.865-12.053 2.869-26.496-5.618-36.398-2.251-1.833-4.423-3.725-6.554-5.658-16.157-6.853-34.067-4.004-51.080-4.502 0.040 38.43-0.139 76.86 0.1 115.29z" />
<glyph unicode="&#xe920;" horiz-adv-x="1673" d="M822.467 484.936c16.316 0.12 32.633 0.139 48.949-0.020-0.259-7.152-0.259-14.304-0.060-21.476-8.806 0.1-17.591-0.020-26.377 0.1 0.12-7.71 0.060-15.42-0.040-23.15 8.049 0 16.137 0.239 24.166-0.598-0.179-6.973-0.080-13.946-0.179-20.918-7.989 0.199-15.958 0.040-23.927 0.179 0.060-9.025 0.040-18.030 0.020-27.054 8.786-0.139 17.571 0.060 26.357-0.199-0.199-7.371-0.219-14.762-0.139-22.153-16.237-0.040-32.493-0.179-48.73 0.040 0.040 38.43 0.139 76.84-0.040 115.25z" />
<glyph unicode="&#xe921;" horiz-adv-x="1673" d="M961.146 370.961c0.080 38.51-0.040 77.039 0.060 115.569 17.233-0.677 36.318 2.55 51.359-7.989 8.407-9.563 9.722-23.608 6.016-35.442-2.869-8.467-11.276-13.687-19.683-15.42-7.69-1.395-15.519-1.255-23.289-1.215 0.020-18.528-0.040-37.055 0.040-55.583-4.841 0.139-9.682 0.159-14.503 0.080z" />
<glyph unicode="&#xe922;" horiz-adv-x="1673" d="M1041.093 486.51c4.821-0.040 9.662-0.060 14.503 0.020 0.060-38.549-0.060-77.079 0.060-115.628-4.861 0.1-9.722 0.1-14.563 0.040 0.040 38.51 0.1 77.039 0 115.569z" />
<glyph unicode="&#xe923;" horiz-adv-x="1673" d="M1087.193 486.47c4.921 0.040 9.861 0.040 14.802 0.060-0.020-35.282-0.080-70.544 0.040-105.807 11.117-0.040 22.233-0.159 33.37 0.040-0.020-3.247-0.020-6.495-0.040-9.762-16.037-0.040-32.075 0.12-48.092-0.1-0.1 38.529 0.080 77.059-0.080 115.569z" />
<glyph unicode="&#xe924;" horiz-adv-x="1673" d="M1142.099 370.961c10.379 38.51 21.038 76.959 31.178 115.549 4.741-0.020 9.503-0.080 14.284-0.1 10.021-38.629 21.237-76.959 31.816-115.429-4.901 0.040-9.802 0.020-14.703-0.040-1.833 7.969-4.263 15.798-6.534 23.668-11.794-0.239-23.608-0.159-35.402-0.080-2.231-7.73-3.725-15.659-5.857-23.428-4.941-0.299-9.861-0.080-14.782-0.139z" />
<glyph unicode="&#xe925;" horiz-adv-x="1673" d="M1221.548 486.629c21.038-0.359 42.096-0.219 63.153-0.080-0.020-3.188 0-6.375 0.020-9.563-8.228 0.139-16.456 0.020-24.664 0.1 0.279-35.382 0-70.764 0.139-106.145-4.741 0.060-9.483 0.060-14.205 0.020 0.199 35.362 0 70.724 0.1 106.086-8.208 0.080-16.416 0.1-24.624-0.080 0.020 3.227 0.040 6.455 0.080 9.662z" />
<glyph unicode="&#xe926;" horiz-adv-x="1673" d="M1302.333 486.51c4.901-0.020 9.842-0.040 14.762-0.040-0.339-27.433-0.080-54.886-0.1-82.318 0.179-7.491 0.12-16.157 5.797-21.835 6.016-4.303 13.846-2.968 20.779-2.909 10.658 3.307 11.117 15.42 11.276 24.723 0.139 27.433 0.060 54.866 0.040 82.299 4.841 0.020 9.662 0.040 14.523 0-0.219-28.050-0.020-56.121-0.12-84.171-0.040-5.538-1.175-10.977-1.932-16.456-2.351-4.263-5.12-8.268-8.626-11.654-13.906-5.797-30.581-6.793-44.367-0.199-9.722 4.781-11.136 16.715-11.774 26.297-0.379 28.748 0.12 57.515-0.259 86.263z" />
<glyph unicode="&#xe927;" horiz-adv-x="1673" d="M975.45 477.086c8.666 0.518 17.472-0.339 25.281-4.423 6.375-8.427 6.614-20.56 2.052-29.843-6.335-8.248-18.010-6.415-27.134-7.292-0.179 13.846 0.179 27.712-0.199 41.558z" />
<glyph unicode="&#xe928;" horiz-adv-x="1673" d="M350.869 471.807c5.937-1.693 11.674 0.139 16.595 3.586 8.726-11.515 15.998-25.062 15.739-39.904-1.673-3.706-3.247-7.451-4.981-11.156-0.538-0.936-1.614-2.829-2.152-3.765-5.917-10.36-13.328-20.062-23.050-27.174-0.12 3.646-0.1 7.272-0.020 10.897-3.745 10.539-13.328 18.488-23.707 22.054-6.495 2.55-13.089-0.12-19.404-1.673 2.012 2.809 4.502 5.22 7.331 7.172 12.511 9.523 21.994 22.373 28.947 36.378 1.554 1.195 3.128 2.411 4.702 3.586z" />
<glyph unicode="&#xe929;" horiz-adv-x="1673" d="M1164.71 403.454c5.718 23.349 11.395 46.718 16.615 70.186 0.239-5.997 0.697-12.033 2.132-17.89 4.184-17.372 8.268-34.784 12.192-52.236-10.32 0.080-20.639-0.020-30.939-0.060z" />
<glyph unicode="&#xe92a;" horiz-adv-x="1673" d="M765.948 466.567c6.076-0.896 13.946-0.398 17.432-6.534 3.267-5.2 1.952-11.455 0.717-17.053-2.689-2.172-5.598-4.044-8.706-5.518-3.168-0.060-6.315-0.219-9.463-0.379-0.080 9.822 0 19.663 0.020 29.485z" />
<glyph unicode="&#xe92b;" horiz-adv-x="1673" d="M237.891 430.927c-0.1-2.291 0-4.622-0.339-6.933-4.741-8.586-12.412-14.862-19.743-21.157 1.514 5.020 2.45 10.479 5.997 14.563 4.403 4.821 10.101 8.288 14.085 13.527z" />
<glyph unicode="&#xe92c;" horiz-adv-x="1673" d="M291.422 416.682c3.207 1.275 6.375 2.61 9.523 4.024 8.746-2.968 18.209 0.717 26.736-3.148 6.136-2.729 11.555-7.192 15.778-12.392-0.379-5.817-2.251-11.435-3.008-17.213-0.438 3.546-0.896 7.072-1.375 10.579 0.379 0.518 1.136 1.534 1.514 2.052 2.45 3.327-1.514 3.984-3.845 5.22-2.988 3.367-5.339 9.602-10.957 7.192-0.996-4.463 2.61-7.491 4.841-10.798-4.662-0.677-9.981-1.713-11.854-6.734 0.020-4.184 3.845-6.833 6.016-10.061-1.375-0.737-4.104-2.231-5.459-2.988 1.654-3.725 3.506-7.391 5.479-10.977-1.813-1.614-3.606-3.247-5.379-4.901 0.657-1.375 1.932-4.124 2.57-5.499 1.395-0.598 2.769-1.235 4.144-1.893-3.566-1.873-7.132-3.706-10.718-5.479-0.279-4.602 3.367-4.622 6.893-4.562 2.052 1.175 4.104 2.351 6.256 3.327 0.697-4.722 3.267-8.586 8.168-9.682-3.128-7.212-6.893-14.384-12.949-19.603-4.463-2.749-9.344-4.801-13.826-7.57-9.045 7.152-15.998 16.874-20.52 27.453-4.343 11.933-4.901 24.783-5.339 37.374-0.498 5.279 2.191 10.021 3.745 14.882 2.709 6.793 2.988 14.205 3.566 21.396z" />
<glyph unicode="&#xe92d;" horiz-adv-x="1673" d="M765.928 420.766c6.056-0.259 12.013-1.554 17.472-4.283 2.929-6.754 3.486-14.324 0.757-21.257-4.901-4.761-11.814-5.020-18.189-5.459-0.080 10.34-0.080 20.659-0.040 30.999z" />
<glyph unicode="&#xe92e;" horiz-adv-x="1673" d="M327.042 394.967c1.992 0.040 4.004 0.080 6.016 0.1 0.080-2.351 0.179-4.722 0.259-7.092-1.634 0.638-3.287 1.255-4.941 1.893-0.438 1.693-0.896 3.407-1.335 5.1z" />
<glyph unicode="&#xe92f;" horiz-adv-x="1673" d="M335.051 383.213c1.016 0.179 3.068 0.558 4.084 0.757 0.458-7.132 1.753-14.284 0.717-21.456-1.972 2.809-3.925 5.618-5.877 8.427 1.414 1.753 2.749 3.566 4.064 5.399 0.398 2.709-2.012 4.602-2.988 6.873z" />
<glyph unicode="&#xe930;" horiz-adv-x="1673" d="M328.736 379.687c6.654-0.319-3.108-5.937 0 0z" />
<glyph unicode="&#xe931;" horiz-adv-x="1673" d="M326.465 365.841c4.423-0.1 6.495-3.845 8.009-7.451-3.725 1.175-5.857 4.463-8.009 7.451z" />
<glyph unicode="&#xe932;" horiz-adv-x="1673" d="M335.111 353.987c1.833 0.558 3.686 1.096 5.558 1.614-1.116-3.427-2.411-6.793-3.666-10.2-0.618 2.869-1.275 5.718-1.893 8.586z" />
<glyph unicode="&#xe933;" horiz-adv-x="1673" d="M1102.752 351.935c0.757-0.1 2.291-0.299 3.048-0.379-0.179-18.229-0.299-36.458 0.12-54.666-1.434-0.1-4.283-0.279-5.718-0.359 0.12 14.244-0.080 28.509 0.139 42.773-3.725-2.789-7.531-5.479-11.415-8.009-0.060 1.614-0.179 4.861-0.239 6.475 5.698 3.626 10.379 8.507 14.065 14.165z" />
<glyph unicode="&#xe934;" horiz-adv-x="1673" d="M1127.077 349.445c5.698 2.729 13.687 3.965 17.93-1.913 7.471-10.838 5.379-24.883 4.702-37.254 2.909-7.152-5.857-10.081-9.642-14.623-4.104-0.080-8.148 0.438-12.013 1.793-8.228 8.766-7.65 21.596-7.232 32.772 0.060 6.933 2.63 13.428 6.256 19.225z" />
<glyph unicode="&#xe935;" horiz-adv-x="1673" d="M1231.45 351.377c0.916 0.179 2.749 0.518 3.666 0.697 0.020-18.567 0.179-37.115-0.040-55.682-1.315 0.080-3.965 0.239-5.299 0.319-0.179 14.244 0 28.489-0.040 42.713-2.968-2.391-5.977-4.702-9.104-6.873-0.478-0.518-1.454-1.574-1.932-2.092-0.279 2.351-0.518 4.702-0.737 7.052 5.479 3.586 10.34 8.049 13.487 13.866z" />
<glyph unicode="&#xe936;" horiz-adv-x="1673" d="M1270.198 351.218c1.434-0.179 2.889-0.379 4.363-0.578-0.139-11.316-0.1-22.632 0.020-33.967 1.375-0.1 4.124-0.299 5.518-0.398-0.080-2.211-0.139-4.443-0.179-6.694-1.355 0-4.084-0.040-5.439-0.060 0-4.303 0.020-8.606 0.060-12.91-1.335-0.060-3.984-0.179-5.319-0.239-0.159 4.443-0.239 8.885-0.259 13.328-7.132-0.159-14.264-0.12-21.376-0.040 0.638 3.347 0.498 6.993 2.53 9.881 6.674 10.579 13.348 21.137 20.082 31.676z" />
<glyph unicode="&#xe937;" horiz-adv-x="1673" d="M1322.335 351.338c1.952 0.060 3.905 0.080 5.877 0.12 0-13.726 0.279-27.453-0.040-41.179 0.040-4.921-2.45-9.204-5.2-13.089-4.403-1.215-9.403-2.63-13.647-0.179-5.359 2.45-6.375 9.124-6.415 14.384 1.235 0.618 3.706 1.893 4.941 2.53 1.076-4.662 2.032-9.642 6.156-12.651 3.427 1.195 8.168 2.411 8.009 6.953 0.797 14.344-0.020 28.748 0.319 43.112z" />
<glyph unicode="&#xe938;" horiz-adv-x="1673" d="M1373.216 296.711c-0.179 18.269 0 36.517-0.080 54.786 1.315-0.020 3.984-0.060 5.319-0.080 0.159-6.554 0.179-13.109 0.438-19.643 0.717 0.976 2.152 2.909 2.869 3.885 3.885 1.395 8.467 2.929 12.312 0.498 4.582-1.773 5.797-7.132 5.857-11.535 0.279-9.304 0.020-18.607 0.020-27.911-1.335-0.080-3.984-0.239-5.299-0.319-0.737 10.399 1.116 21.098-1.136 31.318-3.108 7.152-13.447 3.247-14.284-3.407-1.355-9.224-0.239-18.627-0.717-27.911-1.315 0.080-3.965 0.239-5.299 0.319z" />
<glyph unicode="&#xe939;" horiz-adv-x="1673" d="M1132.297 345.66c5.020 2.889 10.32-2.231 11.276-7.033 2.191-10.36 2.191-21.376-0.478-31.656-1.474-4.702-6.256-6.515-10.818-5.877-7.311 7.132-6.116 18.149-6.096 27.473 0.578 5.877 0.379 13.647 6.116 17.093z" />
<glyph unicode="&#xe93a;" horiz-adv-x="1673" d="M1268.844 340.321c0.259-8.009 0.339-16.037-0.060-24.046-5 0.199-9.981 0.299-14.962 0.359 5.18 7.79 10.12 15.739 15.021 23.687z" />
<glyph unicode="&#xe93b;" horiz-adv-x="1673" d="M604.22 315.059c7.75 7.809 15.021 16.416 25.421 20.759 5.18-5.777 13.467-5.738 19.823-9.622 5.558-3.108 11.356 0.916 16.316 3.287 4.622-4.184 9.742-7.989 13.328-13.188 6.574-9.284 15.26-16.794 24.245-23.648 7.77-4.941 15.659-10.499 25.182-11.136-0.060-0.737-0.219-2.211-0.279-2.948-9.881-5.319-15.42-15.699-24.584-21.974-4.204-2.211-4.104-6.714-3.168-10.738 1.813-0.179 3.646-0.359 5.479-0.538 5.957 6.176 12.451 11.834 18.667 17.771 5.658 6.873 11.475 13.866 18.866 18.946 6.694 3.008 13.667 5.379 20.301 8.527 8.826-13.188 23.249-21.237 37.414-27.493 4.144-2.59 5.259-7.67 6.594-12.033 2.789-10.26 9.941-19.285 19.424-24.146 10.619-6.056 14.603-18.707 16.177-30.102-3.546-7.033-8.128-13.467-12.073-20.281-18.169-28.887-39.844-55.543-64.209-79.43-6.156-5.837-11.933-12.093-18.707-17.193-4.343 4.602-8.786 9.085-13.428 13.368-7.013 5.439-14.762 9.802-22.93 13.208-4.423 8.965-5.040 19.623-12.77 26.815-4.343 2.132-8.845 3.925-13.467 5.319-2.271 7.71-0.657 15.499 0.259 23.229-1.913 7.869-11.256 9.881-14.942 16.316-0.757 8.965-0.219 17.97-0.757 26.955-7.809 4.343-15.519 9.941-17.352 19.325-3.008-9.443 3.885-17.631 11.874-21.715 0.797-8.726-0.080-17.492 0.319-26.238 0.578-7.351 8.746-9.423 12.77-14.543-2.849-10.619-3.108-22.293 2.351-32.154 3.745-2.829 9.383-3.267 11.475-8.029 7.63-8.845 0.657-22.213 8.806-30.879 5.817-2.331 13.906-2.45 16.854-8.965 2.271-3.666 5.14-6.893 8.009-10.12 2.092-2.092 4.224-4.164 6.355-6.236-9.284-6.993-18.687-13.826-28.25-20.42-1.594-1.016-3.168-2.052-4.741-3.088-9.921-6.714-20.5-12.312-30.76-18.428-16.077 8.009-30.959 18.209-44.008 30.521-10.16 6.335-20.261 12.85-30.043 19.703-11.435 11.754-25.221 20.779-39.884 27.951-6.634 3.008-11.674 8.347-15.998 14.045-9.184 8.288-20.918 12.491-31.597 18.328-9.583 10.579-18.129 22.333-30.78 29.565-0.020 9.104-1.913 18.069-3.088 27.054-3.367 12.212-9.324 23.428-14.244 35.023-4.821 9.324-10.878 17.95-15.838 27.194-2.152 4.104-4.482 8.088-7.132 11.894 2.231 1.574 4.443 3.227 6.614 4.881 5.399-0.040 10.917-0.179 16.117 1.534 8.925 2.57 15.021 10.539 23.907 13.188 3.287 1.215 6.495 2.63 9.662 4.124 11.575 8.288 19.265 20.719 31.019 28.827 3.745 0.279 7.511-0.279 11.236 0.279 12.79 3.267 25.998 4.303 39.107 5.259 1.554-1.753 3.048-3.586 4.463-5.479 4.642-0.199 9.304-0.239 13.965-0.339 9.383-12.69 12.631-29.146 23.628-40.721 6.355-4.761 10.001-11.933 14.483-18.289 2.749-0.458 5.479-0.817 8.268-1.155 0 1.474 0 4.463 0 5.937-6.156 9.622-14.045 18.010-21.357 26.716-4.881 8.068-8.248 16.954-12.392 25.421z" />
<glyph unicode="&#xe93c;" horiz-adv-x="1673" d="M1340.683 334.543c5.957 3.686 14.125 4.064 20.221 0.478 4.662-4.224 3.765-10.917 3.805-16.555-0.319-7.431 0.159-14.842 0.737-22.253-3.745-0.359-5.877 1.215-6.435 4.761-4.662-3.745-10.718-6.913-16.774-4.702-9.722 3.048-8.945 19.404 0.638 22.054 5.279 1.594 10.798 2.211 16.177 3.486-0.498 2.889-1.056 5.758-1.614 8.626-4.164 1.614-8.586 1.375-12.91 0.837-1.036-2.51-2.072-5.040-3.108-7.57-1.434 0.518-4.323 1.514-5.758 2.012 1.594 2.988 2.889 6.176 5.020 8.826z" />
<glyph unicode="&#xe93d;" horiz-adv-x="1673" d="M1407.104 337.312c2.729-0.737 4.463-2.59 5.020-5.379 1.853 6.036 7.949 6.136 13.029 4.602-0.638-2.191-1.255-4.383-1.853-6.574-3.068 0.757-8.208 1.673-9.344-2.351-2.769-10.14-1.096-20.839-1.275-31.218-1.434 0.139-4.303 0.418-5.738 0.578 0.219 13.447-0.1 26.895 0.159 40.342z" />
<glyph unicode="&#xe93e;" horiz-adv-x="1673" d="M1431.588 333.846c5.14 2.689 11.435 5.479 17.014 2.152 7.63-3.725 9.144-13.089 9.602-20.739-8.905-0.398-17.83-0.179-26.736-0.139 1.175-4.801 1.773-11.037 7.152-13.109 5.877-3.327 11.874 1.753 14.185 7.033 1.335-0.359 4.004-1.056 5.339-1.395-2.052-3.506-3.506-7.69-7.112-9.941-5.977-3.168-14.404-3.108-19.285 2.012-7.989 9.642-6.375 23.986-0.159 34.127z" />
<glyph unicode="&#xe93f;" horiz-adv-x="1673" d="M1431.229 320.379c1.454 5.319 4.403 12.033 11.037 11.555 6.594 0.518 9.503-6.256 10.778-11.575-7.272 0.159-14.543 0.139-21.815 0.020z" />
<glyph unicode="&#xe940;" horiz-adv-x="1673" d="M1173.357 319.422c5.797 0.020 11.635-0.040 17.452-0.020-0.020-2.072-0.020-4.144-0.020-6.236-5.817-0.080-11.654-0.1-17.472-0.060 0.020 1.574 0.020 4.741 0.040 6.315z" />
<glyph unicode="&#xe941;" horiz-adv-x="1673" d="M1341.141 311.493c5.797 2.172 11.874 3.367 17.91 4.722-0.618-4.602-0.259-10.599-4.941-13.248-3.805-2.829-8.487-1.753-12.651-0.538-0.219 3.028-0.339 6.036-0.319 9.065z" />
<glyph unicode="&#xe942;" horiz-adv-x="1673" d="M632.649 303.206c3.526 4.164 6.236 11.136 12.611 10.977 2.052-1.155 1.554-4.064 0.040-5.479-2.65-3.427-5.877-6.355-8.885-9.483-0.936-0.060-2.829-0.179-3.765-0.239 0 1.056 0 3.168 0 4.224z" />
<glyph unicode="&#xe943;" horiz-adv-x="1673" d="M379.717 306.931c1.673-2.072 3.327-4.164 5.020-6.236 10.16-11.236 17.492-24.584 26.855-36.438-2.132-0.956-4.243-1.913-6.355-2.869-5.718 7.192-10.2 15.26-15.878 22.472-4.423 5.678-5.877 12.89-9.483 19.006-0.040 1.016-0.12 3.048-0.159 4.064z" />
<glyph unicode="&#xe944;" horiz-adv-x="1673" d="M564.654 267.684c-0.498 9.722 4.901 19.006 12.989 24.146 1.375-0.080 4.084-0.219 5.439-0.279 0.677-5.937-3.905-9.682-8.049-12.949-1.913-4.881-3.566-11.834-10.379-10.917z" />
<glyph unicode="&#xe945;" horiz-adv-x="1673" d="M512.717 273.88c3.606 0.618 7.252 1.076 10.917 1.315 1.634-1.893 3.307-3.785 4.981-5.678 1.056-3.885 2.172-7.79 2.65-11.834-6.734-1.673-9.284 4.463-11.017 9.702-1.474 0.199-4.403 0.618-5.857 0.817-0.578 1.893-1.136 3.785-1.673 5.678z" />
<glyph unicode="&#xe946;" horiz-adv-x="1673" d="M410.297 255.392c2.789-1.195 7.391-0.040 9.244-3.207 12.79-16.456 17.85-37.274 29.126-54.647 2.271-8.308 7.371-18.368 2.172-26.397-6.714 5.658-11.953 13.248-13.368 22.034-2.988 17.492-10.937 33.768-20.42 48.61-2.55 4.383-5.797 8.507-6.754 13.607z" />
<glyph unicode="&#xe947;" horiz-adv-x="1673" d="M793.52 243.16c5.319 3.227 5.897-4.682 4.184-7.989-5.598-13.886-11.874-27.532-19.444-40.442-0.916-0.498-2.709-1.514-3.626-2.012-1.136 0.558-3.407 1.673-4.542 2.231 7.132 16.396 16.177 31.875 23.428 48.212z" />
<glyph unicode="&#xe948;" horiz-adv-x="1673" d="M143.3 180.206c13.109 5.937 27.254 9.244 41.358 11.754 4.004-2.929 9.065-2.431 13.746-2.729-4.303-12.551-8.806-25.182-14.742-37.055-10.539-12.073-15.938-27.513-25.68-40.143-16.376 17.213-30.521 36.358-44.167 55.762 4.622 3.407 9.284 6.793 13.866 10.26 5.279-0.1 10.738-0.159 15.619 2.152z" />
<glyph unicode="&#xe949;" horiz-adv-x="1673" d="M474.606 154.785c5.040-10.081 13.368-17.99 20.56-26.536 12.232-8.327 28.15-12.033 37.195-24.604 13.149-12.79 31.875-17.571 45.144-30.361 7.869-8.507 18.647-13.228 27.532-20.46 10.24-9.104 22.99-14.543 33.21-23.687 6.116-4.084 12.332-8.088 19.046-11.156-44.925-21.835-93.475-36.617-143.24-41.538-12.352 8.547-25.919 15.499-36.617 26.238-6.694 2.968-12.352 7.59-17.81 12.352-5.837 3.307-11.097 7.451-15.918 12.073-6.216 5.259-9.802 12.83-15.818 18.308-7.292 8.606-11.316 20.619-8.527 31.796 1.793 9.304 5.977 19.882 14.722 24.564 11.097 2.769 23.707 5.040 31.358 14.444 10.101 10.021 9.363 25.441 9.164 38.569z" />
<glyph unicode="&#xe94a;" horiz-adv-x="1507" d="M0 960h1506.678v-1024h-906.819c-7.939 2.075-16.315 2.361-24.224 0h-575.635v1024z" />
<glyph unicode="&#xe94b;" horiz-adv-x="1507" d="M273.052 909.146c5.714 1.519 10.841 5.714 17.022 4.917 12.736-0.436 23.608-7.909 35.953-9.999 12.947-2.571 23.623-10.751 35.802-15.352 5.909-3.699 10.736-8.992 16.976-12.225 14.104 2.105 28.194 4.451 42.373 6.090 46.975 5.488 94.852 3.067 141.135-6.646 57.801-12.27 113.001-36.524 161.299-70.567 5.549-3.91 11.097-7.819 16.375-12.12 2.451-1.774 4.902-4.090 8.090-4.285 1.609-2.677 3.504-5.203 6.045-7.097 27.201-22.345 51.26-48.343 72.522-76.356 10.887-14.54 21.051-29.652 30.043-45.441 54.388-92.461 74.793-203.838 58.809-309.741-8.511-58.959-28.765-116.113-58.568-167.674-3.955-6.661-7.834-13.398-12.465-19.638-0.090-0.346-0.241-1.038-0.331-1.398-1.383-1.834-2.692-3.729-3.97-5.639-22.194-32.735-48.508-62.688-78.281-88.702-33.006-29.066-70.342-53.215-110.4-71.349-107.407-49.020-234.888-51.847-344.16-7.022-17.879 6.977-35.036 15.653-51.832 24.886-31.938 18.074-61.635 40.088-88.265 65.319-0.391 0.376-1.203 1.128-1.609 1.489-43.14 41.306-78.116 91.047-102.626 145.495-31.848 70.928-45.877 149.796-40.434 227.34 5.759 92.25 39.381 182.546 95.874 255.774 49.997 65.365 117.858 117.211 194.771 146.773 8.676 2.496 14.631 11.007 16.495 19.518-3.684 0.045-7.353-0.316-11.022-0.075-0.692 2.376-1.444 4.722-2.195 7.067-3.729 0.316-7.609-0.211-11.232 0.827-1.639 3.293-2.556 8.691-7.488 6.601-6-5.684-14.676-0.722-16.841 6.135-3.639 0.271-7.263 0.571-10.826 1.368-0.316 1.022-0.962 3.037-1.278 4.045 0.887 2.256 1.834 4.466 2.827 6.676l1.549-0.18-0.135 1.188z" />
<glyph unicode="&#xe94c;" horiz-adv-x="1507" d="M276.615 902.515c7.894 8.090 19.442 2.15 28.84 0.917 2.616-1.85 5.353-3.879 8.646-4.27 8.676-1.248 15.789-6.902 24.089-9.398 9.548-4.24 18.691-9.548 27.171-15.683 6.105-4.27 12.992-7.804 17.713-13.744 3.293-4.21 7.052-8.030 11.278-11.308 1.519-1.97 3.007-3.97 4.421-6.030 4.571-5.849 9.623-11.323 14.014-17.322-2.391-4.195-5.955-7.458-9.323-10.826-0.632 0.015-1.88 0.060-2.511 0.090-2.391 4.737-4.15 9.759-6.526 14.495-3.398 4.391-4.406 10.255-8.541 14.119-3.789 3.789-7.684 7.443-11.714 10.962-6.195 4.331-11.819 11.984-20.014 11.608-4.586-4.090-5.218-10.315-7.894-15.503-5.323 2.601-10.556 6.361-13.819 11.308 2.376 2.361 4.331 5.082 6.571 7.548 1.759 2.872 2.692 6.075 0.947 9.172-2.451 1.744-4.857 3.534-7.248 5.353-2.646 0.211-5.293 0.421-7.924 0.647-0.632 2.256-1.278 4.511-2.045 6.721-3.819 0.887-7.729 0.737-11.503-0.286-2.436 3.203-5.383 5.955-8.736 8.165-3.774-0.887-7.518-1.94-11.187-3.188-1.789 1.895-3.428 3.97-5.564 5.488-2.992 0.782-6.105 0.632-9.142 0.962z" />
<glyph unicode="&#xe94d;" horiz-adv-x="1507" d="M413.284 862.472c57.711 7.969 117.061 3.624 173.027-12.541 102.144-29.096 191.387-98.656 247.008-188.846 31.863-50.809 52.869-108.234 62.568-167.359 6.571-42.208 7.428-85.333 2.571-127.782-6.135-54.192-22.69-106.971-47.23-155.615-0.406 0.15-1.233 0.466-1.639 0.632 0.075 3.804-1.564 7.052-4.676 9.218-4.646 9.744-13.052 17.397-22.615 22.224-9.218 7.173-7.097 20.585-14.886 28.69-3.654 4.075-9.669 4.045-13.879 7.278-3.669 2.541-7.548 4.752-11.398 6.977-6.15 4.27-10.947 10.165-14.916 16.45-1.684 0.466-3.368 0.947-5.022 1.413-9.729-2.752-17.984-9.593-28.299-10.33-12.45-2.225-23.262 6.436-31.908 14.24-8.015 6.646-13.804 15.383-20.841 22.901-4.706 2.992-7.383 9.172-13.338 9.909-3.323 0.692-6.406-1.128-9.233-2.571-1.534-0.752-3.067-1.504-4.601-2.24-3.879 3.383-8.676 5.428-13.864 5.398-2.677 3.353-4.812 9.578-10.27 7.849-5.398-2.586-9.894-6.797-15.488-9.112-6.15-4.466-10.601-11.037-17.322-14.826-0.677 0.872-2.030 2.586-2.707 3.443-4.255 0.165-8.496-0.256-12.736-0.256-4.316 3.022-8.917 8.736-14.631 5.278-10.33-1.383-20.901-2.060-31.096-4.752-5.082-1.308-10.36-0.075-15.533-0.511-8.195-6.015-16.195-12.39-23.172-19.848-6.045-8.165-15.082-14.044-24.931-16.45-5.579-2.722-10.285-6.872-15.413-10.3-9.639-2.977-19.894-3.022-29.878-2.601 4.421 8.766 11.308 16.33 13.849 26.029 4.706 12.631 5.849 26.254 6.571 39.622 7.278-1.489 14.225-4.631 21.728-4.812 4.977-0.045 9.969-0.902 14.931-0.195 7.203 0.812 13.819 4.015 20.435 6.782 6.27 2.466 9.067 9.052 13.172 13.909 8.646 10.135 8.601 24.134 10.826 36.569 0.165 14.977 4.255 30.043 0.692 44.915-2.586 11.443-2.677 23.277-5.233 34.705-0.707 1.293-1.353 2.601-1.925 3.94 5.097 5.248 5.067 13.157 6.782 19.863 2.135 10.616-2.992 20.465-7.984 29.412-3.834 4.646-7.413 9.578-12.105 13.428-7.909 4.376-17.307 3.037-25.968 2.797-8.15 0.241-15.127-4.451-22.72-6.631-2.301 11.172-4.496 22.39-8.225 33.186-0.060 3.083-2.301 4.872-4.661 6.345 5.94 9.939 18.089 11.729 28.344 14.33 8.616 4.511 16.36 11.112 20.465 20.119 3.504 1.489 6.15 4.3 8.255 7.398 4.737-1.684 5.503-7.894 6.631-12.18 0.451-0.541 1.323-1.609 1.774-2.135 2.541 0.060 5.774-0.481 6.33 2.872 1.353 9.127 3.669 19.894-2.992 27.607 1.038 0.090 3.143 0.301 4.195 0.406 4.601-2.045 7.353-8.105 12.917-7.278 0.346 5.082 0.496 10.315-1.759 15.022-1.85 4.436-6.511 7.082-7.879 11.638 2.436 1.022 5.173 0.707 7.774 1.007 0.586 0.556 1.774 1.684 2.376 2.256-0.722 1.819-1.444 3.624-2.135 5.428-2.677 1.759-5.488 3.293-8.225 4.917 5.413 4.902 13.894 9.458 13.172 17.909 0.376 2.782-3.338 2.195-4.797 1.293-4.782-2.316-10.195-1.068-15.097 0.105 0.541 2.677 1.278 5.308 2.090 7.909 2.586 2.271 5.518 4.060 8.315 6.030 0.992 2.511-1.925 4.406-3.789 5.488-3.624 2.286-8.060 1.278-12.074 1.128-1.278-0.842-2.571-1.684-3.864-2.511-2.21-0.872-4.406-1.804-6.631-2.677 0.526 6.315-0.301 13.022-4.571 17.999-1.88 3.669-4.601 6.827-8.36 8.661-0.917-0.511-2.767-1.564-3.684-2.090 0.647-6.526-0.075-13.473-5.022-18.285-3.699 8.436-4.797 19.112-13.518 24.269-3.879 0.301-7.699 1.007-11.548 1.519-0.481-0.917-1.459-2.752-1.955-3.669 2.075-3.218 5.759-6.060 5.097-10.315 0.301-3.864-1.188-7.473-2.286-11.097-5.218 11.473-17.458 17.142-29.186 19.232-2.616 0.511-4.902-0.707-7.082-1.955 1.609-2.316 3.398-4.496 5.293-6.586 4.857-3.654 5.188-9.669 4.782-15.247-8.751 1.083-18.149 3.037-26.299-1.609-0.737-1.248-1.474-2.496-2.195-3.759 0.241-0.917 0.752-2.752 1.007-3.654 4.977 0.045 9.428-2.225 14.014-3.849-1.053-3.022-3.789-6.12-1.85-9.383 2.195-3.609-1.098-7.127-2.21-10.541-1.519-1.579-3.007-3.158-4.511-4.722-8.812-6.075-20.45-4.075-29.307-9.804-3.564-6.797 3.895-11.338 8.090-15.262-0.135-5.428-6.15-8.481-8.646-13.022 0.015-2.917-0.662-6.255 1.263-8.766 5.067-6.345 12.090-10.691 18.57-15.443 0.075-3.128-0.421-6.21-2.225-8.842-3.849 2.556-6.481 6.496-10.225 9.187-8.18 5.654-15.819 12.029-23.262 18.6-2.060 0.451-4.060-0.406-6.075-0.692-1.278-1.022-2.571-2.030-3.879-3.022-2.571 2.451-5.263 5.097-6.361 8.586-0.601 2.932-0.526 6.015-1.804 8.781-2.030 12.661-4.782 25.156-7.293 37.712-0.346 1.699-0.692 3.383-1.007 5.082-3.549 10.375-5.097 21.277-8.3 31.758-1.759 7.774-5.233 14.977-7.669 22.525-2.24 6.857 1.143 13.729 3.94 19.848 2.105 8.496 3.398 17.232 3.188 26.014 0.12 5.924-2.661 11.308-4.331 16.856 3.263 4.541 6.12 9.368 9.233 14.029 3.834 5.669 6.526 12.18 11.668 16.871 0.872 1.985 1.729 3.985 2.541 6.015 2.436 0.015 5.022-0.797 7.353 0.195 4.466 4.646 4.962 11.548 6.706 17.458 5.879-2.722 10.721-7.248 13.954-12.841 2.316-2.797 4.691-5.549 7.248-8.12 4.225-4.3 6.015-10.18 8.451-15.533 1.444-4.18 3.849-7.879 6.857-11.097 2-2.707 4.646-6.812 8.616-5.263 7.503 4.436 12.27 12.12 19.127 17.367 0.556 0.707 1.654 2.15 2.21 2.872-1.158 10.887-11.097 16.946-15.774 26.059-2.692 5.323-7.082 9.428-10.887 13.924 4.977 0.165 9.984 0.256 14.901 1.143z" />
<glyph unicode="&#xe94e;" horiz-adv-x="1507" d="M317.44 826.173c4.872 7.293 9.969 14.691 11.533 23.502 3.188-2.105 8.766-3.774 8.721-8.315-6.436-8.992-13.172-17.969-17.593-28.209-1.113-0.045-2.225-0.105-3.323-0.165-1.549 2.090-4.812 3.789-3.819 6.872 1.308 2.225 2.947 4.24 4.481 6.315z" />
<glyph unicode="&#xe94f;" horiz-adv-x="1507" d="M300.418 830.91c4.511 1.804 8.902 3.864 13.473 5.534-0.662-3.684-3.113-6.541-5.293-9.413-1.594-2.030-3.158-4.105-4.661-6.195-5.564 0.436-10.736-1.368-14.977-4.932-0.887-3.789-1.173-7.684-0.872-11.563-5.594 2.812-12.36 1.654-16.555-3.022 0.195-3.594-1.819-6.436-5.143-7.669-1.654-3.007-2.496-6.315-2.586-9.729-1.398-0.932-2.782-1.865-4.165-2.797-0.511-3.083-0.662-6.195-0.722-9.323-1.744-1.428-3.368-3.022-5.067-4.496-3.398 6.075-3.955 13.428-6.977 19.758-1.278 2.466-2.331 5.037-3.549 7.518-0.18 1.233-0.526 3.684-0.692 4.917 18.285 12.21 38.013 21.878 57.786 31.412z" />
<glyph unicode="&#xe950;" horiz-adv-x="1507" d="M297.321 811.843c1.789 0.466 3.564 0.947 5.353 1.444 1.278-0.782 2.556-1.579 3.834-2.391 3.489-3.879 5.759-8.541 7.473-13.428 6.917-10.105 4.18-23.081 2.24-34.299-1.97-10.045-9.864-20.014-4.706-30.374 3.218-5.503 3.819-11.879 5.94-17.773 9.443-27.622 12.45-56.809 19.142-85.093 1.173-5.443 5.428-9.142 8.992-13.097 2.165-1.428 6.541-2.12 4.977-5.714-3.248-9.052-8.285-19.518-18.315-22.269-4.646 1.233-8.962 3.729-12.811 6.571-6.27 9.729-7.112 21.427-10.165 32.314-2 13.969-3.098 28.104-6.376 41.862-2.541 10.736-1.714 21.954-4.646 32.63-2.12 7.744 0.316 16.24-3.158 23.698-1.188 3.067-3.338 5.594-5.128 8.315-3.143 3.173-7.669 3.834-11.578 5.639 7.398 9.368 14.525 18.931 21.157 28.855 0.571 6.135 2.782 12.074 2.105 18.33 0.752 7.548-4.571 13.683-5.804 20.886 0.361 0.977 1.098 2.917 1.474 3.895z" />
<glyph unicode="&#xe951;" horiz-adv-x="1507" d="M276.164 794.491c0.18 2.812 2.827 3.955 4.827 5.323 3.383-1.293 6.887-2.722 8.902-5.94l0.632-0.075c3.188-4.27 7.699-8.796 5.879-14.616-5.714-0.045-7.157 6.285-11.323 8.932-2.827 2.316-6.902 3.173-8.917 6.376z" />
<glyph unicode="&#xe952;" horiz-adv-x="1507" d="M232.272 792.476c1.609 1.278 3.774-0.361 3.729-2.21 1.278-6.376 3.624-12.42 5.94-18.465 2.556-7.819 3.789-15.999 5.188-24.074-2.301-5.203-4.887-10.676-4.165-16.54 0.872-4.902 4.255-9.608 9.308-10.766 1.985-3.97 2.195-8.631 3.067-12.947 1.368-6.661 3.067-13.262 4.526-19.909 5.112-14.059 6.481-29.036 10.766-43.336 1.639-5.488 2.977-11.067 4.361-16.616 2.105-3.744 3.173-7.954 5.112-11.774 1.519-5.052 3.443-9.969 4.962-15.022 0.662-5.067-0.211-10.255 0.842-15.307 2.015-9.789 6.586-18.826 8.842-28.555 0.947-4.526 3.955-8.285 4.676-12.886-2.631 2.767-5.173 5.624-7.473 8.676-8.556 8.616-4.737 22.089-11.729 31.652-4.255 4.812-7.954 10.285-13.353 13.909-4.406 2.797-9.774 3.188-14.841 3.083-3.624-2.752-4.722-7.067-4.782-11.413-4.060 3.218-5.97 9.263-11.473 10.345 0.857-0.135 2.586-0.406 3.458-0.541-2.992 4.511-5.879 11.443-12.465 10.676-5.488 0.496-9.007-4.421-9.789-9.293-4.346 2.887-11.112 2.812-13.879-2.195-2.466-5.203 0.391-11.007 1.789-16.074l1.714 3.368c0-1.94-0.301-3.819-0.376-5.774-1.278-0.722-2.571-1.413-3.879-2.090-1.654-2.977-2.767-6.631-1.143-9.894 2.286-4.12 5.894-7.263 9.593-10.075-0.677-0.406-2.015-1.203-2.677-1.594 0.030-2.571-0.301-5.233 0.466-7.744 2.346-3.308 6.24-4.857 9.473-7.097 6.376-2.767 12.811-5.428 19.337-7.819 8.796-0.451 17.638 0.12 26.45-0.391 6.917-5.789 11.217-13.954 17.924-19.969 3.94-3.549 7.518-7.518 10.135-12.15 5.488-6.962 12.766-12.841 15.879-21.412 0.346-9.954 0.241-19.954-0.481-29.908-0.992-17.924 6.165-34.9 6.706-52.689 2.24-12.165 0.632-24.555 1.654-36.81-25.863-3.744-51.711-9.007-75.89-19.127-10.36-2.737-19.939-9.218-25.983-18.104-2.526-9.218 0.586-19.172 4.842-27.502 7.383-16.255 16.195-31.788 24.976-47.305 7.518-15.668 13.939-31.803 21.217-47.591 1.113-7.503 2.15-15.127 4.752-22.314 1.398-3.323 4.631-5.233 7.308-7.443-9.669-1.744-20.33 1.865-29.261-3.428-7.458-4.075-8.571-13.262-12.39-20.089 1.188-1.925 1.579-4.812 3.955-5.729 2.15-0.586 4.421-0.541 6.631-0.842-0.075-2.466-0.18-4.932-0.271-7.413 4.391-2.195 10.751-8.887 14.916-3.308 1.218 0.195 2.451 0.361 3.684 0.511 0.195-2.857 0.391-5.714 0.707-8.571 3.443-1.474 6.917-2.932 10.631-3.594 3.624 0.256 4.752 6.060 8.646 5.383 5.503-2.481 10.781-5.458 16.134-8.255-0.015-2.090-0.030-4.195-0.060-6.3 4.722-1.819 9.172-6.12 14.54-4.691 0.18 1.128 0.526 3.368 0.707 4.496 0.481 0.12 1.444 0.391 1.925 0.526 1.113-2.165 2.316-4.3 3.609-6.391 4.060 0.346 8.135 0.496 12.21 0.406 0.165 1.714 0.301 3.428 0.421 5.128 0.451 0.511 1.338 1.534 1.774 2.030 1.263-1.684 2.451-3.443 3.94-4.962 4.481 1.022 8.751 2.782 13.217 3.834 0.15 2.661 0.316 5.308 0.511 7.939 0.617 0.165 1.85 0.496 2.466 0.662 1.714-5.383 2.932-10.947 3.413-16.616-6.135 1.534-12.36 1.248-18.029-1.774-3.549-2.782-7.022-5.955-7.744-10.676-0.782-0.346-2.331-1.038-3.098-1.383-0.391-4.361-0.451-8.736-0.436-13.127 2.376-0.962 4.797-1.88 7.263-2.677-0.421-0.105-1.248-0.316-1.669-0.421-1.233-1.293-2.496-2.571-3.774-3.819 0.256-4.917 3.864-8.541 6.361-12.48 3.714 0.286 8.646 1.203 9.774-3.504-0.992-1.218-1.985-2.451-2.962-3.684 2.21-3.218 4.706-6.225 7.157-9.263 2.932 0.376 5.864 0.752 8.827 1.053 4.21-4.511 7.939-9.428 11.729-14.3 0.752-3.037-0.677-6.15-1.233-9.157 1.158-1.865 2.331-3.744 3.458-5.654 1.323-3.669 4.451-4.21 7.984-3.594-0.045-8.195-0.045-16.42 0.346-24.615-54.553 11.653-106.685 34.239-152.532 65.996-56.132 39.020-103.167 91.122-135.857 151.194-56.147 101.122-70.477 223.987-41.336 335.71 1.083 7.173 3.188 14.119 6.015 20.796 29.066 94.972 90.852 179.824 173.088 235.67z" />
<glyph unicode="&#xe953;" horiz-adv-x="1507" d="M269.939 789.303c5.037 1.128 9.007-2.421 12.616-5.353 3.985-3.639 8.887-8.12 7.203-14.119-4.932-1.022-6.857 4.225-9.548 7.218-3.308 2.571-6.451 5.413-10.225 7.323-0.030 1.654-0.045 3.293-0.045 4.932z" />
<glyph unicode="&#xe954;" horiz-adv-x="1507" d="M264.045 771.951c1.053 1.714 0.496 5.789 3.473 5.368 6.451-0.105 10.857-5.774 14.195-10.691 0-1.158 0.015-3.443 0.015-4.586-4.255-0.466-6.706 3.188-9.669 5.488-2.271 2.12-5.278 3.098-8.015 4.421z" />
<glyph unicode="&#xe955;" horiz-adv-x="1507" d="M259.323 764.839c1.459 0.256 2.932 0.511 4.406 0.782 4.24-2.075 11.819-4.15 10.481-10.195-2.812-1.459-5.052 1.323-7.428 2.301-3.052 2.015-8.796 2.030-7.458 7.112z" />
<glyph unicode="&#xe956;" horiz-adv-x="1507" d="M259.263 753.606c5.052-0.992 9.608-3.489 14.51-5.007-8.631-3.504-9.984-15.909-19.954-16.961-1.022 3.052-1.068 6.225-0.541 9.368 3.278 3.504 4.451 8.195 5.985 12.601z" />
<glyph unicode="&#xe957;" horiz-adv-x="1507" d="M272.164 732.419c7.804 0.376 14.24-5.819 15.728-13.172 2.962-26.735 7.894-53.17 12.15-79.74 1.053-8.601 1.639-17.337 4.541-25.592 1.534-8.315 3.624-16.676 7.969-24.029 3.128-2.812 7.323-4.015 11.127-5.669 1.158-3.218 1.338-6.646 1.729-10.014 6.361-6.496 14.977-9.398 22.766-13.608 5.052-5.819 13.954-8.18 16.946-15.548-7.579-8.225-15.834-15.789-23.517-23.908 0.977-4.060-1.474-6.812-5.007-8.3-7.804 5.263-13.924 12.601-21.518 18.134-3.624 4.496-3.353 10.556-5.082 15.819-4.887 15.849-13.082 31.066-13.292 47.997-0.226 7.248-2.301 14.24-4.767 21.006-3.353 7.744-7.112 15.398-8.661 23.788-3.083 8.842-6.902 17.668-7.428 27.141-0.436 6.842-3.819 12.977-5.233 19.593-1.819 4.511-1.804 9.413-2.782 14.104-2.797 6.977-3.128 14.525-3.955 21.908 3.052 3.113 5.744 6.541 8.285 10.090z" />
<glyph unicode="&#xe958;" horiz-adv-x="1507" d="M463.642 728.149c5.864-5.909 7.097-14.54 10.105-21.984 3.534-5.203 9.037-0.872 11.623 2.902 2.872 2.165 4.060 5.549 4.947 8.902 5.158-5.338 2.857-13.834 5.067-20.45 7.037-2.060 13.142 2.436 19.082 5.383-3.504-5.233-7.293-11.759-4.902-18.194 5.097-2.496 10.691-3.804 16.315-4.406-2.887-3.849-7.353-5.834-11.353-8.27 0.075-1.248 0.165-2.496 0.271-3.744 2.797-1.94 5.473-4.060 8.285-6-2.932-0.932-5.849-1.91-8.751-2.872 0.18-1.624 0.361-3.248 0.556-4.872 4.782-4.045 8.33-9.368 11.458-14.751-4.782 3.158-10.3 5.022-16.059 3.789-0.947-4.526 0.195-8.902 2.692-12.721 0.301-3.504 0.632-6.992 0.767-10.496-1.804 2.782-3.684 5.503-5.503 8.27-2.060 0.18-4.105 0.286-6.15 0.346-5.097 6.556-12.105 11.097-18.24 16.555-10.826 9.263-19.292 21.097-31.321 28.946-8.030 9.428-20.119 14.089-28.284 23.307-2.271 0.135-4.526 0.226-6.767 0.301-0.195 0.571-0.571 1.699-0.752 2.271 6.27-0.030 12.766-0.511 18.826 1.459 0.556 5.308 0.496 10.676-0.361 15.954-1.128 1.278-2.225 2.571-3.263 3.91 4.992-1.654 9.849-4.18 13.413-8.15 3.714-3.594 5.894-8.526 10.090-11.653 1.744 1.263 3.91 2.331 4.346 4.676l0.526 0.256c1.789 7.022 3.744 13.999 3.338 21.337z" />
<glyph unicode="&#xe959;" horiz-adv-x="1507" d="M415.194 669.581c2.526 2.586 2.511 9.368 7.052 8.601 5.609-6.436 13.007-10.917 19.713-16.089 7.969-7.082 16.134-13.909 23.412-21.698 8.045-5.804 14.195-13.729 22.254-19.503 3.263-2.030 2.752-6.496 0.586-9.142-4.030-5.518-8.977-10.736-15.322-13.533-5.654-1.88-11.684-2.376-17.322-4.346-4.722-2.511-8.766-6.090-12.811-9.563-0.586-4.3-0.752-8.646-1.083-12.992-10.3-3.428-21.623-2.301-32.073-0.015-7.864 3.594-14.54 11.443-13.623 20.525 6.511 4.977 9.639 16.285 1.549 21.337-5.443 3.91-13.097 6.195-15.337 13.202-0.947 8.045 10.977 10.857 9.022 19.172-2.225 3.804-6.526 5.849-9.368 9.172 1.985 3.188 5.864 2.782 9.082 3.233 4.511 0.346 8.902 1.609 13.097 3.323-1.639-4.977-0.436-10.33 2.827-14.345 2.105-1.534 4.165-3.173 6.255-4.752 6.676-3.293 14.39-4.045 21.563-1.955 8.406-3.669 16.45-8.15 24.63-12.285 4.285-2.391 9.187-4.466 11.879-8.827 0.301-3.774-2.105-6.977-3.263-10.405 2.165-0.105 4.331-0.15 6.496-0.165 0.872 1.834 1.759 3.669 2.752 5.443 0.331 3.263 1.654 7.398-1.143 9.939-5.428 6.857-14.345 8.691-21.352 13.292-5.744 3.248-12.014 5.503-17.367 9.443 0.331 11.849-11.383 20.736-22.104 22.931z" />
<glyph unicode="&#xe95a;" horiz-adv-x="1507" d="M409.69 659.627c2.692 5.639 8.917 1.564 12.511-0.812 3.774-3.413 8.827-8.436 5.323-13.713-6.090-1.098-11.473 2.496-15.578 6.601-1.459 2.406-1.94 5.173-2.256 7.924z" />
<glyph unicode="&#xe95b;" horiz-adv-x="1507" d="M359.257 615.238c3.729 0.421 6.12-3.864 9.172-5.609 7.488-4.676 14.345-10.39 19.969-17.217 0.737-2.707 0.135-5.609 1.007-8.285 3.413-12.541 16.42-19.803 28.48-21.908 9.142-0.030 18.691-0.406 27.201 3.428 4.526-9.984 4.421-21.142 8.3-31.321-4.962-2.857-9.744-5.985-14.676-8.872-1.143-1.564-2.271-3.128-3.443-4.661 0.075 8.571 0.481 17.683-4.030 25.352-5.834 8.18-14.51 14.571-24.435 16.661-6.992 2.406-13.533-2.271-20.149-3.849-5.564-1.398-9.954-5.293-15.127-7.533-4.466 2.21-7.879 5.864-11.804 8.827-8.691 5.729-18.029 10.3-27.051 15.383-0.015 0.692-0.045 2.075-0.060 2.767 7.368 4.015 14.962 8.796 19.036 16.405 4.481 5.955 5.278 13.563 7.609 20.435z" />
<glyph unicode="&#xe95c;" horiz-adv-x="1507" d="M222.333 603.916c1.669 0.677 3.323 1.368 4.977 2.090 5.112-3.428 6.947-9.548 10.571-14.225 8.15-8.511 18.916-13.608 28.946-19.458-0.722 4.631-3.594 8.496-6.12 12.3-3.684 2.541-8.030 5.233-8.842 10.014 0.917 0.496 2.737 1.489 3.654 2 2.857-0.842 5.699-1.714 8.496-2.737 6.361-5.744 12.074-12.45 15.352-20.435 1.579-7.548 2.316-15.368 5.924-22.36 4.586-3.534 7.849-8.466 12.39-12.105 4.646-3.594 7.939-8.616 12.706-12.059 4.902-3.504 8.601-8.39 13.578-11.834 4.752-3.594 9.278-8.947 15.819-8.39 0.812 0.466 2.406 1.398 3.203 1.865 0.842 1.263 1.669 2.541 2.496 3.819 2.646 2.015 6.285 4.015 9.563 2.361 9.518-5.353 16.766-14.751 19.097-25.397-0.617-3.248 0.662-8.27-3.413-9.518-5.549-2.195-9.969-6.315-15.262-8.962-5.112-1.834-10.165-4.075-15.563-4.962-6.947 0.812-12.601 5.624-17.849 9.894-6.721 7.819-13.052 15.969-19.127 24.299-5.067 5.609-10.481 10.932-15.247 16.811-8.842 6.345-12.661 18.3-23.352 22.375-8.315 0.662-16.691-0.271-25.006 0.391-7.052 1.699-13.713 4.706-20.45 7.308-3.128 1.639-7.579 4.511-5.714 8.616 0.767 0.226 2.286 0.677 3.052 0.887 7.428-4.586 15.789-8.436 24.765-7.609-0.256 0.632-0.797 1.88-1.053 2.511-7.473 2.767-15.533 3.97-22.179 8.676-5.428 2.977-14.345 7.594-11.608 15.022 4.060 2.346 7.293-2.601 10.090-4.857 8.586-5.128 18.961-10.932 29.156-7.609-5.864 3.218-11.924 6.045-18.149 8.496-4.691 1.819-8 5.804-11.999 8.691-2.917 1.97-4.556 5.112-6.511 7.909-0.571 1.263-1.173 2.511-1.774 3.744 0.376 1.85 0.767 3.684 1.188 5.503 1.91 0.18 3.819 0.346 5.729 0.496 2.346-3.067 3.97-6.601 6.18-9.729 7.909-6.526 16.089-14.029 26.735-15.202-6.15 5.203-13.413 9.218-18.27 15.879-3.579 4.255-7.293 9.654-6.18 15.488z" />
<glyph unicode="&#xe95d;" horiz-adv-x="1507" d="M393.736 554.445c5.383 0.346 10.857 1.007 16.195-0.015 3.293-1.383 6.3-3.383 9.443-5.082 1.774-2.225 3.458-4.556 5.293-6.751 4.526-7.879 4.646-17.939 0.812-26.119-2.15-4.075-4.526-8.030-7.188-11.789-5.097-3.594-8.781-8.812-14.21-11.984-5.308-4.616-12.044-6.887-17.849-10.706-1.383-1.203-3.218-1.053-4.917-1.128-0.346 4.812 0.075 9.623-0.391 14.405-3.819 5.864-6.691 12.345-11.202 17.728-2.767 3.353-6.631 5.443-10.195 7.804-1.895 0.601-3.804 1.173-5.714 1.699 7.007 8.751 16.195 15.503 23.728 23.803 5.263 2.992 10.736 5.564 16.195 8.135z" />
<glyph unicode="&#xe95e;" horiz-adv-x="1507" d="M475.205 535.228c6.3 1.759 12.947 3.353 19.518 2.752 6.406-2.391 12.811-5.744 16.676-11.623 4.451-6.646 10.090-13.608 9.939-21.999-2.225-8.887-3.037-20.645-12.796-24.69-2.24 2.075-4.391 4.27-6.24 6.706-6.917 8.165-18.57 10.541-28.705 8.511-5.248-0.992-10.616-1.188-15.894-2.030-5.909-1.85-11.834-3.759-17.638-5.955-2.165 3.955-1.308 8.511-1.895 12.796-0.632 4.932-0.481 9.909-0.346 14.856 2.707 2.812 5.684 5.323 8.827 7.639 8.857 5.639 18.871 9.097 28.555 13.037z" />
<glyph unicode="&#xe95f;" horiz-adv-x="1507" d="M427.388 505.831c0.586 0.977 1.173 1.955 1.774 2.917 0.346-8.375-1.173-16.931 1.639-25.051-3.398-4.947-1.278-11.308-1.91-16.901-1.699-18.029 1.263-36.133-0.331-54.162-1.684-18.51 0.632-36.975 2.376-55.365 0.601-2.872 0.782-5.819 0.030-8.691-7.744-1.428-15.638-0.617-23.472-0.812-11.007 0.226-22.39-1.128-32.976 2.692-6.12 1.729-11.097 5.909-17.097 7.894-3.819 1.022-6.496 4.015-9.127 6.751-0.617 0.165-1.865 0.511-2.496 0.677-0.617 0.842-1.865 2.496-2.496 3.338 0.977 1.504 1.985 2.992 3.022 4.451 3.684 9.864 5.894 20.194 8.857 30.269 0 8.135 3.173 15.804 3.022 23.938 0.677 7.097 1.173 14.255 2.887 21.202 1.188 6.451 0.556 13.082 2 19.503 2.436 1.308 4.842 2.646 7.203 4.090 0.421-0.511 1.293-1.549 1.714-2.075 5.94-1.007 11.187 2.511 15.849 5.729 6.285 4.3 13.879 6.255 19.863 11.037 5.714 3.895 9.969 9.383 15.022 14.014 1.564 1.504 3.098 3.037 4.646 4.556z" />
<glyph unicode="&#xe960;" horiz-adv-x="1507" d="M804.344 483.502c13.247 15.277 40.434 14.405 52.749-1.639 11.729-14.089 13.819-33.532 13.383-51.215 0.18-18.63-5.894-39.231-22.119-50.072-9.248-5.007-20.435-5.714-30.449-2.797-9.278 2.902-16.134 10.39-20.781 18.63-7.142 14.841-8.18 31.697-7.263 47.892 0.932 13.999 4.556 28.78 14.48 39.201z" />
<glyph unicode="&#xe961;" horiz-adv-x="1507" d="M1396.76 483.336c13.774 14.15 36.66 13.353 53.35 5.067-0.030-4.676 0.015-9.368-0.045-14.059-6.090 6.030-14.36 10.33-23.096 9.924-8.616 0.647-18.721-3.218-22.044-11.774-3.037-7.188-1.278-16.375 4.631-21.623 6.015-5.278 13.112-9.112 20.104-12.917 8.781-4.917 18.24-10.195 23.337-19.262 4.541-10.135 2.526-23.172-5.473-31.051-7.789-8.451-19.698-11.954-30.931-11.518-8.977-0.331-18.029 1.639-26.029 5.684 0.195 4.481 0.15 8.947 0.090 13.413 7.142-5.067 15.352-9.443 24.375-9.233 10.105-0.662 21.653 4.496 24.931 14.706 3.504 8.39-1.383 17.879-8.646 22.465-14.135 9.894-32.9 15.352-41.035 31.923-2.586 9.774-1.218 21.097 6.481 28.254z" />
<glyph unicode="&#xe962;" horiz-adv-x="1507" d="M752.723 492.99c7.819-0.12 15.623-0.105 23.442-0.030-0.211-22.239-0.030-44.479-0.090-66.718-0.105-10.315 0.541-20.706-1.308-30.915-1.398-6.421-5.398-12.3-11.157-15.548-8.812-5.443-19.939-4.406-29.487-1.774-0.286 6.992-0.030 13.999-0.286 20.991 5.203-1.819 13.082-4.391 16.45 1.714 1.97 5.203 2.090 10.917 2.331 16.435 0.18 25.277-0.015 50.553 0.105 75.845z" />
<glyph unicode="&#xe963;" horiz-adv-x="1507" d="M956.636 377.388c0.045 38.539-0.12 77.078 0.090 115.602 15.142-0.571 31.126 1.789 45.396-4.631 9.233-4.27 13.804-14.841 13.473-24.6 0.586-8.21-1.218-17.277-7.413-23.096-10.481-8.345-24.6-8.135-37.291-7.984 0.165-18.435-0.060-36.855 0.135-55.275-4.812 0.015-9.593-0.015-14.39-0.015z" />
<glyph unicode="&#xe964;" horiz-adv-x="1507" d="M1036.405 377.342c0.090 38.554-0.165 77.108 0.135 115.662 4.706-0.075 9.413-0.105 14.135 0 0.256-38.554 0.045-77.108 0.105-115.647-4.797 0.060-9.593 0.060-14.375-0.015z" />
<glyph unicode="&#xe965;" horiz-adv-x="1507" d="M1082.718 492.885c4.752 0.015 9.518 0.030 14.285 0.12 0.195-35.381 0.105-70.778 0.045-106.159 11.262 0.301 22.525 0.090 33.803 0.060-0.015-3.158 0-6.315 0-9.488-16.044-0.045-32.073-0.015-48.117 0.015 0.12 38.479 0.165 76.973-0.015 115.452z" />
<glyph unicode="&#xe966;" horiz-adv-x="1507" d="M1169.029 493.035c4.466-0.105 8.947-0.105 13.443-0.030 10.947-38.479 21.382-77.108 32.269-115.602-4.947-0.030-9.879-0.045-14.811 0.015-1.925 7.639-4.24 15.172-5.804 22.901-12.12 0.256-24.269 0.256-36.389 0.030-1.669-7.669-3.624-15.262-5.233-22.946-5.037 0.030-10.075-0.030-15.112 0 10.766 38.494 20.706 77.214 31.637 115.632z" />
<glyph unicode="&#xe967;" horiz-adv-x="1507" d="M1216.756 483.517c-0.030 3.188 0 6.361 0.12 9.518 21.112-0.241 42.223-0.15 63.335-0.060-0.030-3.188 0.045-6.376-0.090-9.563-7.984-0.15-16.044 0.211-24.044 0.18-0.451-35.396-0.18-70.808-0.135-106.219-4.872 0.060-9.714 0.060-14.571 0.015-0.015 35.411 0.075 70.823-0.045 106.234-8.195-0.18-16.39-0.12-24.57-0.105z" />
<glyph unicode="&#xe968;" horiz-adv-x="1507" d="M1298.029 408.093c-0.075 28.299-0.045 56.598-0.015 84.897 4.737-0.12 9.473-0.105 14.24-0.030 0.075-24.765 0-49.516 0.030-74.281 0.060-7.654-0.632-15.518 1.789-22.946 1.203-5.518 6.511-9.714 12.105-9.864 6.691-0.18 14.661-1.143 19.668 4.361 3.413 4.676 4.255 10.691 4.21 16.345 0.090 28.795 0.045 57.576 0.030 86.356 4.827 0.015 9.669 0 14.525 0.045-0.060-28.314 0.015-56.628-0.045-84.942 0.015-6.541-0.737-13.187-3.699-19.127-3.368-8.255-12.841-11.368-20.976-12.45-10.932-0.677-23.006-1.233-32.419 5.338-7.894 6.165-9.398 16.916-9.443 26.299z" />
<glyph unicode="&#xe969;" horiz-adv-x="1507" d="M451.116 480.404c11.804 3.263 24.119 4.451 36.344 3.985 6.887-2.526 11.759-8.195 15.668-14.15 3.94 0.12 7.894 0.301 11.834 0.421 0.211-1.774 0.436-3.564 0.692-5.338 2.646-8.27 3.398-17.022 5.308-25.472 1.203-16.57 0.992-33.351-2.436-49.681-0.346-7.173-1.459-14.36-5.323-20.57-1.804-2.060-3.368-4.331-4.676-6.751-4-3.895-7.849-8.33-13.323-10.165-3.97-1.925-8.766-1.323-12.45-3.895-4.526-0.12-9.413-1.083-13.608 1.128-9.984 1.022-20.254 4.421-27.908 11.067-0.872 8.255-3.834 16.27-3.173 24.66-0.481 17.518 2.015 35.036-0.195 52.508-0.12 12.601-0.662 25.262 0.316 37.832 4.451 1.007 8.721 2.677 12.932 4.421z" />
<glyph unicode="&#xe96a;" horiz-adv-x="1507" d="M970.905 483.547c6.225 0.105 12.48-0.286 18.615-1.398 4.752-2.105 9.338-5.308 10.676-10.646 2-8.315 1.744-18.074-4.135-24.871-7.443-4.977-16.555-4.782-25.126-4.601 0 13.834 0.060 27.683-0.030 41.516z" />
<glyph unicode="&#xe96b;" horiz-adv-x="1507" d="M1173.179 463.819c1.353 5.082 1.609 10.39 2.827 15.503 2.962-23.487 10.33-46.133 15.052-69.304-10.33-0.060-20.66-0.18-30.991 0.045 4.691 17.834 8.556 35.878 13.112 53.756z" />
<glyph unicode="&#xe96c;" horiz-adv-x="1507" d="M820.553 468.826c5.534 4.586 13.398 4.436 18.961-0.015 6.075-7.774 7.834-17.909 7.789-27.547 0.165-13.473 0.992-28.434-7.744-39.727-5.759-4.932-14.616-4.496-19.939 0.872-2.541 4.12-4.631 8.586-5.428 13.383-2.406 12.871-2.256 26.194 0.060 39.050 0.887 5.097 3.083 9.924 6.3 13.984z" />
<glyph unicode="&#xe96d;" horiz-adv-x="1507" d="M321.38 464.856c4.691-1.865 8.436-5.97 13.744-6.21 6.571-1.85 12.18 2.872 18.6 3.098-0.677-11.984-2.631-23.848-4.872-35.622-0.271-7.127-1.413-14.119-2.887-21.081-2.135-6.571-5.007-12.886-6.586-19.608-1.789-7.533-5.594-14.375-9.278-21.112 0.827-0.692 2.466-2.060 3.293-2.737-0.331-0.256-0.977-0.782-1.308-1.038-1.744 0.075-3.489 0.15-5.233 0.211 1.038 10.766-0.090 21.563-0.030 32.344-4.075 23.668-7.909 47.666-5.443 71.755z" />
<glyph unicode="&#xe96e;" horiz-adv-x="1507" d="M1085.26 356.321c0.812 0 2.436 0.015 3.248 0.015 0.436-18.27-0.135-36.539 0.286-54.809-1.955-0.045-3.879-0.12-5.804-0.18 0.075 14.18 0.045 28.359 0.030 42.524-3.489-3.067-7.278-5.789-11.368-7.984 0.436 2.586-1.098 6.285 1.88 7.714 5.007 3.113 9.007 7.488 11.729 12.721z" />
<glyph unicode="&#xe96f;" horiz-adv-x="1507" d="M1318.299 356.171c1.985 0.060 3.97 0.12 5.97 0.165 0.135-13.292 0.060-26.6 0.030-39.892-0.331-4.616-0.632-10.15-4.767-13.097-3.083-2.827-7.428-2.782-11.323-2.646-6.812 2.301-8.917 9.699-8.751 16.195 1.684 0.496 3.428 0.977 5.143 1.519 0.722-3.443 1.398-6.947 2.737-10.225 2.872-1.398 5.924-1.158 8.887-0.105 1.323 3.113 2.24 6.421 2.135 9.819-0.12 12.766-0.060 25.517-0.060 38.268z" />
<glyph unicode="&#xe970;" horiz-adv-x="1507" d="M343.153 352.261c0.241 0.917 0.737 2.752 0.977 3.669 8.075-4.165 16.014-8.661 24.284-12.48 9.142-3.022 18.871-4.616 28.525-4.195 12.841 0.12 25.698-0.271 38.539 0.226 0.436 0.722 1.293 2.18 1.729 2.902-1.564-12.3-2.872-24.735-7.398-36.404-3.323-9.263-9.443-17.217-16.33-24.104-3.91-4.466-8.827-8.857-8.872-15.292-8.556-18.886-13.518-39.050-19.713-58.763-2.526-9.684-6.706-18.856-8.977-28.63 1.594-5.218 4.18-10.24 7.353-14.736 6.797-8.827 9.518-19.909 14.18-29.878 0.12-0.932 0.361-2.797 0.481-3.729 0.511-0.571 1.504-1.699 2-2.271 2.752-11.278 7.533-21.954 12.48-32.419 3.428-8.451 6.24-17.262 11.082-25.051 0.977-1.579 1.489-3.383 1.94-5.173-3.684-1.834-7.864-1.308-11.834-1.338-5.609 0.15-11.217-0.211-16.811 0.18-8.18 4.646-16.495 9.338-23.653 15.518-1.684 10.12-0.045 20.811-4.285 30.374-1.714 4.977-2.827 10.135-4.541 15.112-1.804 5.488-3.789 11.112-8.195 15.112 1.489 5.383-0.165 10.917-3.91 14.931-0.902 1.203-1.789 2.406-2.677 3.609 2.331 0.556 4.661 1.128 6.947 1.85 2.992 3.684 2.406 8.315-0.406 11.909-2.661 3.233-3.955 7.248-5.398 11.097-6.12 8.36-11.082 17.413-15.232 26.871 1.113 5.112 3.248 9.939 4.285 15.082 3.594 11.578 7.112 23.202 10.781 34.765 3.323 6.24 2.346 15.142 8.466 19.593 16.164 0.601 31.923 4.797 47.125 10.105 4.376 3.052 7.924 7.188 11.338 11.247 3.94 4.346 5.112 10.496 9.202 14.706-0.015 0.797-0.060 2.406-0.075 3.218-1.022 0.511-3.052 1.564-4.075 2.090-5.052-4.706-6.812-11.744-11.488-16.796-4.3-5.158-10.225-9.218-16.841-10.676-8.511-2.18-16.796-5.94-25.758-5.699-11.653-0.722-23.683 1.053-34.389 5.714-11.082 0.376-22.164 0.15-33.246 0.241-7.503-0.090-15.653 0.932-22.209-3.549 10.014-10.014 20.239-20.345 26.901-33.006 6.3-7.383 8.225-17.097 12.36-25.638 4.045-8.36 5.458-17.773 9.894-25.983 2.677-5.684 7.007-10.466 9.142-16.42 2.346-7.624 9.187-13.187 9.533-21.533-10.706 0.030-21.427-0.195-32.133 0.030-6.060 1.428-11.954 3.519-18.044 4.872-1.94 0.601-3.879 1.158-5.804 1.774-3.579 1.188-7.157 2.526-9.999 5.097-4.902 9.097-3.098 20.074-8.421 29.066-2.286 8.12-7.533 14.946-10.090 22.961-2.090 6.451-6.15 11.984-9.067 18.059-2.917 7.323-7.157 13.999-11.082 20.811-0.962 1.955-1.895 3.91-2.887 5.834-2.406 5.564-3.91 11.608-7.458 16.616-2.827 3.594-3.383 8.27-5.323 12.3-1.413 2.842-1.579 6.030-2.346 9.037 0.737 10.15 12.074 13.022 19.773 16.555 11.007 6 23.593 7.834 35.381 11.744 10.541 3.819 22.044 3.173 32.6 6.917 10.511 1.248 21.097 1.654 31.667 1.97z" />
<glyph unicode="&#xe971;" horiz-adv-x="1507" d="M1122.355 355.193c1.669 0.15 3.353 0.286 5.037 0.406-0.045-11.684-0.075-23.367 0.030-35.051 2.376 0 4.782 0.015 7.203-0.015-0.977-1.895-1.263-4.015-1.579-6.12-1.895 0.060-3.789 0.105-5.654 0.12-0.15-4.631 0.211-9.293 0-13.939-1.88 0.451-3.804 0.842-5.654 1.158 0.015 4.27-0.015 8.526-0.075 12.781-6.797 0-13.578 0.015-20.36-0.045 0.105 2.256 0.241 4.496 0.391 6.736 7.037 11.232 14.21 22.405 20.66 33.968z" />
<glyph unicode="&#xe972;" horiz-adv-x="1507" d="M1214.861 351.329c5.669 6.571 17.352 6.857 22.675-0.286 4.12-5.699 3.759-13.789 0.376-19.758-5.022-8.947-13.729-14.886-19.894-22.931 7.669-0.391 15.337-0.18 23.021-0.256-0.075-2.24-0.135-4.481-0.15-6.736-10.12 0.165-20.254-0.211-30.359 0.241 0.977 11.699 10.691 19.067 17.969 27.096 3.428 4.105 7.503 9.082 6.12 14.811-0.511 6.135-8.511 9.112-13.368 5.789-3.323-2.030-3.759-6.225-4.376-9.684-1.865 0.346-3.714 0.692-5.534 1.038 0.827 3.428 1.609 6.902 2.436 10.33l1.834-3.684c0.030 1.383-0.361 2.722-0.752 4.030z" />
<glyph unicode="&#xe973;" horiz-adv-x="1507" d="M1250.708 351.088c5.624 6.751 17.473 7.203 22.886-0.015 4.060-5.714 3.849-13.774 0.421-19.743-5.082-8.902-13.548-15.037-20.014-22.811 7.669-0.722 15.383-0.271 23.081-0.451-0.030-2.195-0.045-4.406-0.015-6.631-10.165 0.015-20.345-0.271-30.494 0.18 0.992 11.699 10.766 19.052 18.044 27.096 3.413 4.105 7.488 9.097 6.090 14.826-0.511 7.022-10.826 9.608-15.007 4.255-1.985-2.195-2.105-5.323-2.707-8.075-1.398 0.165-4.165 0.511-5.549 0.692 0.797 3.383 1.474 6.827 2.331 10.195l2.135-3.143c-0.195 1.278-0.707 2.466-1.203 3.624z" />
<glyph unicode="&#xe974;" horiz-adv-x="1507" d="M1369.935 356.291c1.368 0 4.105 0.015 5.473 0.015 0.211-6.721-0.301-13.473 0.346-20.179 0.256 0.707 0.797 2.15 1.068 2.857 5.879 4.797 16.525 3.925 18.826-4.21 1.834-10.947 0.361-22.179 0.902-33.246-1.834-0.105-3.669-0.211-5.473-0.346-0.797 10.045 0.662 20.224-0.767 30.194-0.962 6.616-10.811 6.24-13.368 0.917-2.225-6.045-1.323-12.586-1.474-18.886 0.075-3.864-0.466-7.834 0.632-11.638-2.075-0.18-4.12-0.406-6.135-0.632-0.211 18.39-0.195 36.78-0.030 55.155z" />
<glyph unicode="&#xe975;" horiz-adv-x="1507" d="M1106.958 320.624c4.872 8.060 10.36 15.774 14.375 24.299 0.662-8.105 0.391-16.255 0.346-24.405-4.917 0-9.819-0.045-14.721 0.105z" />
<glyph unicode="&#xe976;" horiz-adv-x="1507" d="M1332.854 330.428c0.586 11.127 14.661 14.15 23.021 9.744 3.113-1.594 4.225-5.263 4.436-8.541 0.601-10.090-0.932-20.36 1.534-30.299-1.88 0.075-3.744 0.15-5.594 0.211-0.496 1.474-0.992 2.947-1.459 4.421-5.714-5.834-16.315-7.909-21.683-0.526-2.271 5.955-1.398 14.315 5.067 17.187 5.248 1.985 10.992 2.225 16.405 3.669-0.541 3.143 0.211 7.563-3.368 9.067-5.188 2.992-12.465 0.045-13.112-6.18-2.511 0.391-4.947 0.812-7.398 1.263 0.541-0.015 1.609-0.015 2.15-0.015z" />
<glyph unicode="&#xe977;" horiz-adv-x="1507" d="M1414.007 341.525c3.128 1.609 6.105-0.662 8.932-1.834-1.323-1.489-2.060-3.338-2.752-5.173-2.571 0.857-5.699 1.819-7.789-0.556-2.496-4.376-2.331-9.669-2.406-14.571 0.165-5.864-0.346-11.774 0.586-17.593-2.135-0.15-4.255-0.286-6.345-0.406 0.526 13.292-0.12 26.6 0.406 39.892 1.113-0.045 3.323-0.12 4.421-0.165 0.241-1.684 0.496-3.398 0.782-5.097 1.233 1.85 1.624 5.022 4.165 5.503z" />
<glyph unicode="&#xe978;" horiz-adv-x="1507" d="M1425.495 328.654c1.128 7.218 7.503 13.638 15.082 13.368 4.827 0.256 8.887-2.752 12.044-6.090 2.556-5.112 3.519-10.841 3.323-16.525-8.586 0.105-17.157 0.165-25.728-0.135 0.451-5.338 2.857-11.909 8.902-12.841 5.368-1.323 9.894 2.872 11.353 7.714 1.804-0.241 3.609-0.466 5.458-0.722-1.022-2.887-1.85-6.045-4.135-8.24-5.594-6.24-16.585-6.030-22.179 0.090-5.398 6.391-5.669 15.533-4.12 23.382z" />
<glyph unicode="&#xe979;" horiz-adv-x="1507" d="M615.092 328.398c3.669 4.135 9.398 5.067 13.563 8.526 1.774-1.534 3.458-3.218 5.458-4.511 3.744-1.293 8.060-0.977 11.353-3.519 2.165-1.398 4.496-2.752 7.127-2.962 4.902-0.707 8.721 4.857 13.488 3.549 4.255-3.579 8.917-6.887 11.819-11.759 7.368-9.654 16.39-17.999 26.089-25.292-3.143-0.075-3.834-2.677-4.541-5.082-0.917-0.105-2.722-0.301-3.639-0.406-0.812-1.459-1.594-2.947-2.361-4.436-1.714-0.526-3.428-1.068-5.112-1.624-0.752-1.218-1.504-2.436-2.24-3.669-2.12-0.301-4.21-0.632-6.315-0.962-0.827-1.428-1.654-2.857-2.481-4.3-3.729 0.511-7.624 1.098-10.781-1.444-0.256-3.338-0.286-6.691-0.18-10.045-5.368-2.286-12.706-5.308-13.172-11.939 2.165-3.203 4.466-6.315 6.887-9.353-2.887-4.947-7.684-8.15-11.473-12.255-3.338-5.789 3.519-10.195 6.842-13.999-1.564-3.218-5.173-4.255-8.075-5.879-4.15-2.015-7.894-4.767-11.548-7.563-2.872-3.564-8.451-6.827-6.496-12.225 2.692-6.24 10.751-7.398 14.255-12.962-5.849-4.15-12.526-7.007-18.164-11.518-4.872-4.060-12.014-6.376-13.804-13.157-0.842-8.18 6.526-13.217 12.165-17.623-0.18-1.158-0.361-2.316-0.541-3.504-8.075-2.722-16.766-3.007-24.675-6.27-2.301-1.263-4.571-2.586-6.812-3.94-0.256-3.774 0.090-7.579 2.286-10.796 1.368-1.128 2.737-2.286 4.075-3.473 4.391-3.624 9.759-5.849 13.834-9.879-2.616-3.218-6.751-4.21-10.345-5.849-12.511-4.812-24.645-13.142-30.389-25.638-3.007-7.699 3.263-14.345 8.015-19.608 6.060-6.3 15.668-7.037 21.578-13.473-6.751-7.263-14.119-14.586-17.247-24.269-2.12-5.037-1.413-10.601-1.143-15.909-2.631-0.812-5.308-1.489-7.969-2.15-5.594 3.278-9.699 8.285-13.834 13.142-4.496 3.97-8.766 8.21-13.398 12.014-4.135 2.917-7.308 7.097-11.969 9.218-6.466 8.33-11.293 17.728-17.337 26.344-4.225 8.045-7.624 16.465-10.841 24.946-1.639 3.534-2.872 7.233-4.421 10.796-3.323 6.571-6.571 13.157-10.616 19.307-3.594 10.405-7.293 20.976-14.104 29.803-2.030 7.714-7.594 13.774-10.135 21.262-1.609 4.782-3.91 9.263-6.045 13.804-3.007 5.428-2.782 12.12-6.706 17.082-6 8.24-10.345 17.488-13.909 26.991l-1.068-0.18c-7.804 17.548-19.202 33.321-25.277 51.651 1.353 2.797 2.992 5.413 4.631 8.030 0.571-0.541 1.729-1.639 2.301-2.18 11.187 0.797 22.916-1.744 33.682 2.15 7.924 2.782 14.495 8.090 21.427 12.601 10.992 2.707 20.45 9.623 27.698 18.149 4.691 5.819 10.631 10.39 15.984 15.533 2.932 2.511 6.947-0.015 10.36 0.692 13.518 3.293 27.412 4.285 41.155 5.834 2.526-2.271 4.3-6.616 8.375-6.030 4.105-0.662 10.255 2.045 12.345-2.977 5.173-7.759 8.496-16.585 12.661-24.901 3.624-4.601 5.128-10.947 10.36-14.135 6.33-4.15 8.18-12.255 14.029-16.886 2.030-1.624 4.661-1.188 7.007-0.722 0.271 1.519 0.541 3.022 0.812 4.511-6.105 9.458-13.217 18.405-21.262 26.254-4.827 8.902-9.112 18.119-13.037 27.442 3.895 3.925 8.616 7.037 11.804 11.623z" />
<glyph unicode="&#xe97a;" horiz-adv-x="1507" d="M1435.269 334.939c4.045 2.646 9.503 1.489 12.736-1.925 1.308-2.496 1.699-5.338 2.496-8.045-6.812 0.12-13.623 0.090-20.42 0.090 1.038 3.549 1.444 8.045 5.188 9.879z" />
<glyph unicode="&#xe97b;" horiz-adv-x="1507" d="M1155.782 329.887c2.331 1.97 4.691 4.451 7.954 4.601 6.060 0.466 10.826-4.496 16.691-5.052 3.037 0.617 5.263 2.857 7.563 4.752-0.195-2.752 0.256-5.654-0.586-8.345-2.361-1.985-5.293-3.804-8.511-3.443-5.879 0.271-10.435 5.549-16.465 4.917-2.511-0.962-4.436-2.902-6.511-4.496-0.045 2.361-0.075 4.722-0.135 7.067z" />
<glyph unicode="&#xe97c;" horiz-adv-x="1507" d="M1339.169 317.12c5.067 1.549 10.255 2.616 15.443 3.759-0.346-4.255-0.12-9.202-3.549-12.36-3.368-3.233-10.526-4.285-12.871 0.632-2.12 2.481 0.211 5.443 0.977 7.969z" />
<glyph unicode="&#xe97d;" horiz-adv-x="1507" d="M632.73 298.655c-2.947 6.511 3.609 12.195 8.045 16.089 2.165 2.722 5.804-0.361 4.947-3.158-3.534-5.022-7.969-9.398-12.992-12.932z" />
<glyph unicode="&#xe97e;" horiz-adv-x="1507" d="M566.252 282.476c3.413 3.925 7.052 7.654 10.962 11.097 1.007-0.211 3.037-0.647 4.060-0.857-0.015-2.601 1.233-6-1.504-7.669l0.090-0.662c-1.955-1.444-3.91-2.872-5.909-4.225-1.053-3.684-2.511-7.233-4-10.751-1.579-0.165-3.143-0.316-4.706-0.481-0.481 0.902-1.459 2.707-1.955 3.609 0.752 2.15 1.519 4.285 2.496 6.345 0.12 0.887 0.346 2.692 0.466 3.594z" />
<glyph unicode="&#xe97f;" horiz-adv-x="1507" d="M740.408 284.371c6.887 3.037 14.119 5.368 20.841 8.812 2-2.752 3.97-5.564 6.33-8.060l0.090-0.451c6.27-6.18 14.345-9.834 21.427-14.916 3.759-2.616 9.112-2.526 12.059-6.33 3.173-3.609 3.263-8.631 4.932-12.932 2-5.955 6.195-10.766 10.165-15.518 5.293-4.24 12.029-6.812 16.089-12.48 2.601-3.864 4.932-7.939 6.691-12.27 0.662-0.030 1.985-0.075 2.646-0.090 0-4.361 0.436-8.796 2.346-12.781-20.721-36.99-46.659-70.973-76.838-100.746-20.691-20.269-43.426-38.359-67.635-54.237-4.917-3.083-9.714-6.361-14.886-9.007-0.090-0.617-0.241-1.85-0.331-2.466 0.165 6.285 0.075 12.721-2.060 18.691-4.090 7.518-11.563 12.39-19.202 15.774 8.345 3.368 16.54 7.173 24.45 11.473 1.94 2.466 5.097 4.842 4.496 8.375-0.707 2.601-2.060 4.932-3.203 7.323-4.842 5.368-10.375 10.045-16.601 13.683 3.849 4.691 10.285 5.534 15.383 8.375 2.932 1.489 5.834 3.083 8.586 4.917 1.263 1.293 2.541 2.571 3.834 3.834 4.391 10.616-6.3 18.044-12.886 24.42 8.39 6.782 17.067 13.202 24.826 20.736 0.586 1.819 1.113 3.654 1.579 5.488-3.864 6.105-9.969 10.36-14.33 16.074-0.12 2.030 0.466 4.075 2.195 5.263 3.428 3.128 6.902 6.195 10.21 9.458 0.556 1.714 1.143 3.428 1.759 5.112-4.812 7.443-13.578 10.135-20.615 14.826-1.143 4.962 5.278 9.383 2.376 14.39-2.466 3.428-6.526 5.383-9.368 8.496 0.421 4.090 7.082 3.654 7.879 7.684 0.647 2.646 0.030 5.729 1.609 8.045 3.098 1.504 6.977 2.060 8.090 5.924 0.917 0 2.737 0 3.654 0 0.662 1.895 1.308 3.774 1.94 5.669 0.722 0.15 2.165 0.451 2.887 0.601 0.451 1.444 0.902 2.887 1.383 4.316 0.827 0.286 2.496 0.827 3.338 1.098 0.165 1.143 0.481 3.428 0.632 4.571 3.263-0.376 6.511-0.947 9.669-1.895-3.308-5.744-10.029-8.315-13.804-13.774-5.278-7.849-15.127-11.518-19.367-20.149 1.519-2 3.639-2.24 5.924-1.639 1.729 1.398 3.579 2.646 5.428 3.895 3.97 3.473 7.624 7.293 11.774 10.541 8.090 7.052 15.217 15.187 23.608 21.878z" />
<glyph unicode="&#xe980;" horiz-adv-x="1507" d="M702.605 285.152c0.466 3.955 3.849 5.097 7.458 4.616-1.308-1.459-3.022-2.376-4.827-3.098-0.617-3.504-4.24-5.052-5.218-8.39-1.038-0.12-3.083-0.361-4.12-0.481-1.925-2.692-3.308-6.225-6.992-6.782-2.947-0.391-3.338-3.609-4.902-5.518-1.94-0.842-4.451-0.617-5.955-2.271-0.932-2.030-1.489-4.225-2.15-6.361l-1.098 0.165c-2.466-3.504-7.443-6.391-6.24-11.338 1.098-5.398 6.631-8.466 8-13.759-0.406-3.338-3.368-5.458-5.669-7.563-1.714-2.541-3.985-5.955-2.195-9.007 2.256-3.684 6.345-5.639 9.383-8.586-0.286-0.782-0.842-2.346-1.128-3.128-6.571-1.94-12.36-5.654-17.473-10.135-3.052-4.21-3.458-10.811 1.97-13.232 4.932-1.248 9.699-3.052 14.345-5.128 0.075-1.098 0.15-2.225 0.256-3.353-1.729-1.038-3.428-2.105-5.067-3.278-11.653-7.112-25.893-11.037-34.569-22.239 0.722-2.436 1.383-5.864 4.3-6.496 5.834-2.301 12.074-3.263 18.315-3.413 0.932-0.376 2.797-1.128 3.729-1.504-0.090-0.556-0.301-1.639-0.391-2.195-8.812-5.594-19.021-8.842-27.201-15.443-3.007-3.203-5.218-7.248-6.451-11.458-0.286-3.654 2.812-5.894 5.368-7.879 4.24-1.128 8.436-2.376 12.661-3.594 1.278-1.053 2.556-2.105 3.864-3.158-0.165-1.083-0.346-2.165-0.496-3.263-9.293-5.789-20.224-7.744-30.389-11.428-9.488-2.256-19.773-7.052-23.277-16.886 2.631-5.534 8.406-7.503 13.924-8.902 9.563-4.24 20.134-5.188 30.299-7.263 2.361-1.729 4.797-3.368 7.263-4.977 0.556-4.511-3.789-6.12-6.646-8.496-10.285-7.774-20.044-17.352-24.69-29.637-7.759-2.466-15.292-5.684-23.232-7.579 1.143 7.789 3.774 15.879 9.969 21.142 1.308 1.699 2.616 3.413 3.94 5.112 3.308 2.346 5.909 5.443 8.21 8.751-0.015 1.804-0.015 3.609-0.015 5.398-3.143 4.782-9.022 5.729-13.729 8.285-7.037 3.489-15.247 6.661-19.097 14.014-2.24 4.752 2.225 8.481 4.782 11.879 9.428 7.082 19.307 13.834 30.765 17.157 2.677 1.684 5.443 3.248 8.24 4.722 0.737 2.932 0.421 5.804-1.489 8.18-6.045 4.346-11.699 9.218-18.6 12.24 0.075 1.293 0.165 2.586 0.286 3.864 6.767 2.782 14.21 3.729 20.645 7.323 3.669 1.94 6.285 5.248 9.353 7.954-0.060 8.781-10.075 12.044-15.368 17.578 1.955 5.729 7.579 8.601 12.15 11.954 6.015 4.376 13.473 7.067 18.224 12.992 2.075 2.631 0.992 5.714 0.030 8.496-4.842 3.263-9.834 6.345-14.119 10.33 5.323 4.902 11.142 9.368 17.668 12.526 3.639 2.24 7.939 4.646 9.233 9.007 1.413 5.458-4.661 7.879-7.218 11.668 2.631 6.060 9.037 9.834 11.142 16.345-2.195 3.669-4.872 6.992-7.428 10.39 3.368 3.007 8.105 4.451 10.902 8.015 0.15 3.128-0.361 6.24-0.376 9.353 2.827-0.060 5.654-0.15 8.481-0.271 1.353 1.594 2.646 3.218 3.91 4.872 3.383 0.962 7.744 1.413 7.473 5.94 1.88 0.692 3.774 1.383 5.654 2.105 0.090 0.842 0.271 2.526 0.361 3.368 1.744 0.571 3.504 1.158 5.263 1.744z" />
<glyph unicode="&#xe981;" horiz-adv-x="1507" d="M291.923 287.423c8.586 0.767 17.172 1.338 25.803 0.992 0.692-7.308 1.985-14.571 4.255-21.563 0.947-8.15 4.541-15.954 3.94-24.284 1.083-3.579 2.511-7.142 2.556-10.947l-2.331 0.12c-5.579 12.586-8.616 26.404-16.646 37.772-4.706 7.067-11.759 11.894-17.578 17.909z" />
<glyph unicode="&#xe982;" horiz-adv-x="1507" d="M707.973 283.889c1.925 1.263 3.774 2.661 5.759 3.849-0.030-1.534-0.075-3.083-0.165-4.646-0.842-0.135-2.541-0.436-3.383-0.571-0.301-0.932-0.887-2.797-1.173-3.729-3.158-0.526-3.654-3.669-4.601-6.165-1.007-0.045-3.007-0.15-4.015-0.195-0.331-0.842-0.977-2.496-1.293-3.323-6.872-0.451-9.398-6.736-9.789-12.751-4-2.135-10.42-5.007-8.842-10.646 0.526-4.526 5.233-6.361 7.879-9.488-0.707-5.188-5.879-10.42-2.812-15.834 4.15-5.488 12.27-5.594 16.796-10.706 0.015-0.752 0.030-2.24 0.030-2.992-6.27-5.173-17.563-7.939-16.751-18.074 3.098-4.15 7.368-7.127 11.458-10.21 0.601-2.045 1.158-4.135 1.609-6.255-3.729-5.263-9.684-7.984-14.721-11.744-3.519-2.436-6.436-5.594-9.608-8.451-0.541-2.195-2.24-4.782-0.677-6.947 2.692-3.759 5.203-8.030 9.488-10.18 2.376-2.045 5.218-4.3 4.827-7.804-4.090-2.466-8.285-4.722-12.766-6.391-6.345-3.849-15.894-7.218-15.683-16.149-0.030-7.503 8.827-8.526 13.217-12.796 2.165-2.21 6.721-4.962 4.030-8.451-8.736-7.142-23.487-7.639-27.938-19.427 2.797-10.556 16.51-9.172 21.833-17.593 2.917-6.481 2.737-13.638 1.444-20.495-12.39-6.315-24.705-12.826-37.622-18.029 6.18 9.022 16.45 13.849 23.969 21.533 3.699 3.744 3.774 9.924 1.158 14.3-1.819 4.737-6.977 6.225-10.887 8.736-12.285 5.669-26.344 5.188-38.9 9.954 7.278 3.774 15.458 5.233 23.036 8.27 10.435 4.135 22.375 5.624 30.915 13.548 2.571 3.473 1.188 7.984-0.075 11.684-6.601 6.391-15.202 10.165-24.149 11.819 8.932 11.533 24.991 12.014 36.178 20.345 1.383 1.534 2.286 3.398 3.353 5.128-2.24 3.022-4.526 6.015-6.27 9.338-6.315 3.083-13.277 4.511-20.149 5.609 6.135 2.692 11.699 6.511 17.909 9.082 6.842 3.579 15.172 6.616 18.615 14.119 2.421 4.12-0.977 8.541-4.135 11.007-4.932 2.962-10.706 4.105-16.33 4.932-1.293 2.466 1.549 3.699 3.113 4.782 5.594 3.007 13.413 5.774 14.074 13.112 1.233 5.158-4.15 8.255-7.654 10.826-1.113 1.398-3.624 3.639-1.564 5.368 3.098 4.090 8.481 8.12 7.157 13.879-2.947 4.466-7.594 8.045-8.661 13.578 2.752 3.714 6.767 6.917 7.473 11.729 1.564 0.496 3.143 0.977 4.722 1.444 0.737 1.94 1.263 3.97 2.391 5.729 2.376 1.263 4.902 2.21 7.293 3.458 0 0.917-0.015 2.767-0.030 3.684 1.759 0.256 3.534 0.481 5.323 0.677 0.662 1.383 1.338 2.752 2.015 4.105 1.759 0.992 3.037 2.466 3.579 4.421z" />
<glyph unicode="&#xe983;" horiz-adv-x="1507" d="M329.89 287.513c1.639-0.992 3.248-2.045 4.842-3.128 3.834-1.233 7.729-2.301 11.593-3.458-3.879-9.383-2.677-20.269-8.345-29.036-2.090 2.692-2.301 6.12-2.18 9.383-1.684 8.827-5.443 17.217-5.909 26.239z" />
<glyph unicode="&#xe984;" horiz-adv-x="1507" d="M512.601 269.665c-1.098 2.737-0.195 5.443 2.466 6.661 3.864-0.301 8.496 0.045 10.932-3.654 2.631-4 5.278-9.458 2.631-14.104-1.413-0.015-2.827-0.045-4.24-0.075-2.030 3.383-3.398 7.157-5.849 10.285-2 0.165-3.985 0.466-5.94 0.887z" />
<glyph unicode="&#xe985;" horiz-adv-x="1507" d="M790.871 246.237c1.699 0.105 3.413 0.18 5.143 0.226-0.256-3.338 0.211-6.932-1.413-10.029-3.97-8.315-8.090-16.585-11.187-25.292-0.797-1.609-1.624-3.233-2.451-4.857-2.481-2.661-3.925-6.045-5.007-9.473-2-0.451-4-0.887-6-1.293-0.586 0.857-1.774 2.601-2.376 3.458 1.714 3.083 3.263 6.24 4.872 9.368 2.045 3.248 3.338 6.887 5.248 10.21 4.255 9.293 9.669 18.014 13.172 27.683z" />
<glyph unicode="&#xe986;" horiz-adv-x="1507" d="M401.435 223.276c2.511 6.827 4.3 13.894 6.15 20.931 2.556-8.706 8.766-15.593 12.165-23.908 2.030-4.812 5.714-8.721 7.398-13.713 1.955-5.534 6.27-9.699 8.872-14.901 6.526-10.33 9.172-22.375 14.315-33.351 5.338-12.315 12.841-23.683 16.601-36.675 0.677-0.496 2.015-1.474 2.677-1.97 5.518-13.262 12.375-25.923 17.367-39.426 7.458-14.571 12.586-30.209 19.969-44.809 3.759-7.804 8.556-15.142 14.901-21.097 6.661-5.924 13.082-12.105 19.337-18.45 2.962-2.556 6.315-4.616 9.518-6.842 1.143-1.398 2.301-2.797 3.473-4.195-0.030-0.601-0.105-1.834-0.15-2.436-34.855-6.827-70.537-9.774-106.024-7.789-16.856 1.308-33.818 2.225-50.358 5.879 0.105 5.067 0.18 10.135-0.075 15.172 1.353 0.556 2.707 1.083 4.075 1.609 0.286 2.631-0.872 6.436 2.902 6.721 0.556-1.579 1.098-3.173 1.654-4.782 2.466-6.135 9.699-2.391 14.39-2.045 3.699 1.654 1.173 6.676 1.233 9.608 2.346-1.804 4.331-4.165 6.977-5.579 2.827-0.767 4.917 1.714 7.233 2.827 2.12 1.654 5.94 2.24 5.789 5.579-0.135 4.015-1.699 7.819-1.955 11.804-0.692 5.052 0.571 10.105 0.105 15.142-1.94 7.684-6.195 14.525-8.21 22.194 2.917 2.571 4.331 6.015 3.489 9.894-5.759 7.188-7.924 16.33-11.864 24.48-3.218 11.247-9.849 21.142-12.706 32.494-2.225 9.142-6.857 17.397-9.909 26.239-3.037 9.864-9.293 18.194-14.646 26.856 1.218 3.158 2.316 6.361 3.564 9.503 2.857 12.044 8.526 23.111 11.744 35.036z" />
<glyph unicode="&#xe987;" horiz-adv-x="1507" d="M283.562 166.678c2.962 1.865 4.752-2.090 6.782-3.579 1.639-2.030 4.060-0.556 5.549 0.827 5.518-0.15 9.744-4.722 15.337-4.15 9.308-0.601 18.615-1.263 27.923-2 2.466-2.661 4.030-6.105 6.977-8.36 1.534-6.601 1.474-13.428 1.699-20.164-1.022-2.722-2.977-4.932-4.571-7.308-5.804-4.24-13.217-3.353-19.984-3.398-5.879-0.15-11.699 1.489-17.112 3.579-5.729 4.406-12.676 6.541-19.172 9.488-9.473 3.549-19.924 4.571-28.63 9.999-5.218 1.804-10.706 6.045-10.060 12.18-0.226 4.376 3.609 7.563 7.503 8.541 3.714 0.662 7.518 0.361 11.262 0.827-0.662-3.669 1.895-5.909 5.353-5.263 0.105 1.158 0.316 3.473 0.421 4.631 1.684 0.376 3.368 0.737 5.052 1.083 0.361-3.323 1.594-6.556 5.037-7.759 0.421 0.962 1.278 2.917 1.714 3.895-0.722 2.060-2.737 4.977-1.083 6.932z" />
<glyph unicode="&#xe988;" horiz-adv-x="1507" d="M343.694 91.555c3.895 2.797 9.202 1.158 13.653 1.188 0.962-2.346-1.654-3.669-2.797-5.323 1.007-1.383 2.060-2.752 3.143-4.090 1.804 1.549 3.458 3.278 4.857 5.203 0.195-3.594-0.391-7.639 1.744-10.811 7.609-10.3 19.112-17.037 30.795-21.788 9.819-0.692 19.698 0.030 29.532-0.361 1.022-5.443 3.654-10.27 5.624-15.368 2.045-7.984 2.21-17.533-4.105-23.728-8.285-4.977-18.315-2.977-27.487-2.857-10.541 3.609-16.901 13.368-22.299 22.525-3.744 4.18-8.315 7.503-12.165 11.548-2.917 2.526-5.413 5.443-7.804 8.436-6.24 5.789-9.548 13.804-13.623 21.097-2.692 4.346-2.15 10.345 0.932 14.33z" />
</font>
</defs>
</svg>
